<svg width="392" height="294" fill="none" xmlns="http://www.w3.org/2000/svg"><path d="M302.972 285.369c-2.81 3.628-6.113 6.323-5.388 7.548 0 0 1.495 1.083 5.624 1.083 7.077 0 14.031-.537 12.889-1.251-1.582-.989-6.165-1.347-10.542-2.855-1.082-.374 2.368-2.46 1.426-2.801-1.951-.708-3.471-1.318-4.009-1.724zm72.918 7.331s.93 1.299 4.499 1.299c6.119 0 12.498-.827 11.511-1.446-1.369-.853-12.094-3.081-12.094-3.081l-2.404-2.973-4.079 2.246 2.567 3.955z" fill="#68070B"/><path d="M356.504 202.927c-4.388 0-7.708-.873-7.985-.948a4.275 4.275 0 01-3.014-5.252c.623-2.278 2.977-3.618 5.263-3.006.15.039 9.814 2.503 15.453-2.314 3.776-3.227 5.21-9.301 4.264-18.058l-.302-2.793 8.689-4.901a4.306 4.306 0 015.857 1.612 4.265 4.265 0 01-1.621 5.829l-3.842 2.169c.607 10.314-1.91 17.934-7.498 22.675-4.711 3.997-10.593 4.987-15.264 4.987z" fill="#C07515"/><path d="M371.371 179.192c-.163 6.222-1.824 10.723-4.973 13.413-6.187 5.286-16.784 2.591-16.967 2.542-2.511-.674-5.095.801-5.779 3.299-.686 2.501.796 5.084 3.309 5.768.304.08 3.952 1.892 8.767 1.722 18.283-.645 29.317-16.346 29.521-25.498l-13.878-1.246z" fill="#E1F3F6"/><path d="M346.235 157.421a86.22 86.22 0 01-4.834-2.353c-15.149 8.588-34.504 19.59-34.887 19.974 0 0 9.62 15.248 10.234 15.859.396.393 24.249-16.641 41.409-28.982-3.958-1.526-8.042-2.766-11.922-4.498z" fill="#008DC4"/><path d="M346.48 156.983c3.967 1.742 8.134 3.006 12.167 4.584a7268.758 7268.758 0 0016.751-12.086l-16.148-4.517s-7.77 4.391-17.344 9.817a78.406 78.406 0 004.574 2.202z" fill="#00AFE2"/><path d="M318.646 136.966l9.507 25.622 18.585 6.789-23.542-42.81-4.55 10.399zm29.101 38.705h-13.769l12.255 21.314 18.684 7.841-17.17-29.155z" fill="#006091"/><path d="M364.918 204.826l-10.962-18.616-46.896 27.37-9.222-15.66 5.792-93.105 21.074-12.299 37.931 64.412 12.764-7.447 10.614 18.023-12.764 7.448 10.962 18.614-19.293 11.26zm-42.544-72.242l-1.186.693-3.223 49.72 25.377-14.809-20.968-35.604z" fill="#0076AD"/><path d="M282.25 193.658l15.59 4.261 9.221 15.661-16.472-4.154-8.339-15.768z" fill="#008DC4"/><path d="M282.25 193.658l15.59 4.261 5.791-93.104-14.304-3.408-7.077 92.251z" fill="#00AFE2"/><path d="M289.325 101.407l14.304 3.408 21.074-12.299-14.485-4.192-20.893 13.083z" fill="#00D2FD"/><path d="M320.691 230.758s2.291 24.604 2.291 33.222c0 0-17.996 13.964-22.404 21.268 1.893 1.433 5.633 3.337 8.084 3.263 12.008-11.415 25.188-19.562 25.188-19.562s5.685-16.418 7.455-30.319l-20.614-7.872z" fill="#68070B"/><path d="M333.518 231.92c4.053.028 8.194-.666 11.679-2.55-1.17-4.914 1.322-19.41 4.451-27.158 0 0 2.469-5.394.738-7.05-6.402-6.13-11.85-5.628-13.543-5.696-5.878 4.937-16.812 19.511-16.373 38.77 3.019 3.16 9.153 3.658 13.048 3.684z" fill="#E1F3F6"/><path d="M373.219 289.422c2.343-.648 4.589-1.727 6.031-3.635-6.949-11.221-32.433-52.431-33.813-55.658-.035-.083-.067-.179-.1-.272-3.742 2.008-8.208 2.715-12.537 2.55-3.771-.145-9.229-.671-12.307-3.449.007.199.009.394.019.595.532 10.758 36.378 46.625 50.485 60.34.777-.113 1.53-.282 2.222-.471z" fill="#910508"/><path d="M299.219 220.766a8.957 8.957 0 01-2.865-.448c-1.895-.63-4.403-2.22-5.586-6.197a4.274 4.274 0 012.9-5.317 4.299 4.299 0 015.339 2.886c.08.264.154.433.206.531.458.02 2.16-.129 6.302-2.552 3.701-2.164 8.078-5.388 12.312-8.505 7.153-5.27 13.909-10.244 19.488-12.001 2.262-.713 4.677.537 5.392 2.788a4.27 4.27 0 01-2.799 5.367c-4.214 1.327-10.699 6.105-16.972 10.723-9.182 6.76-17.279 12.725-23.717 12.725z" fill="#C07515"/><path d="M307.258 217.568c-.526-2.519-1.078-5.3-2.679-7.37-3.463 1.91-4.944 2.039-5.365 2.022a2.918 2.918 0 01-.206-.531 4.3 4.3 0 00-5.34-2.886 4.275 4.275 0 00-2.899 5.317c1.184 3.978 3.692 5.566 5.586 6.197a8.946 8.946 0 002.864.448c2.498 0 5.243-.9 8.206-2.392l-.167-.805z" fill="#C07515"/><path d="M342.708 191.948a4.3 4.3 0 00-5.392-2.787c-5.58 1.757-12.335 6.732-19.489 12.001-4.233 3.117-8.611 6.341-12.311 8.504-.169.101-.328.187-.49.28 1.607 2.112 4.388 12.534 4.436 12.772 4.557-2.373 26.411-18.934 31.149-23.933 1.628-1.717 2.812-4.583 2.097-6.837z" fill="#E1F3F6"/><path d="M293.143 217.31c-.255 0-.51-.076-.733-.234-3.372-2.399-5.13-7.015-5.203-7.209a1.26 1.26 0 01.742-1.62 1.267 1.267 0 011.625.738c.016.042 1.57 4.1 4.305 6.045.567.404.699 1.19.294 1.752a1.265 1.265 0 01-1.03.528z" fill="#C07515"/><path d="M293.143 214.243c-.396 0-.786-.186-1.033-.533-1.613-2.275-2.905-7.679-3.048-8.287a1.26 1.26 0 01.945-1.51 1.262 1.262 0 011.518.941c.355 1.521 1.524 5.817 2.649 7.403a1.253 1.253 0 01-.302 1.753 1.243 1.243 0 01-.729.233z" fill="#C07515"/><path d="M294.889 213.536c-.499 0-.972-.295-1.171-.783-1.158-2.825-1.61-8.749-1.629-9a1.26 1.26 0 011.167-1.347c.7-.057 1.301.469 1.354 1.161.118 1.6.612 6.198 1.447 8.235a1.254 1.254 0 01-.691 1.64 1.278 1.278 0 01-.477.094z" fill="#C07515"/><path d="M296.786 212.929a1.26 1.26 0 01-1.223-.943c-.796-3.073-.071-6.208-.039-6.339a1.268 1.268 0 011.52-.936c.679.16 1.1.837.941 1.513-.013.06-.606 2.695.026 5.134a1.256 1.256 0 01-1.225 1.571zm50.806-14.143a4.056 4.056 0 01-1.725-.386 4.016 4.016 0 01-1.927-5.359c.998-2.102 2.8-4.255 3.002-4.494a4.056 4.056 0 015.698-.478 4.014 4.014 0 01.487 5.67c-.507.598-1.463 1.873-1.875 2.744a4.051 4.051 0 01-3.66 2.303z" fill="#C07515"/><path d="M348.174 196.713a20.94 20.94 0 001.502 1.493 4 4 0 001.574-1.726c.412-.871 1.369-2.146 1.875-2.744a4.013 4.013 0 00-.487-5.669 4.055 4.055 0 00-5.697.477c-.08.096-.41.49-.839 1.057.035 2.538.303 5.173 2.072 7.112z" fill="#A86113"/><path d="M361.452 192.272c-1.609 3.885-6.077 5.739-9.981 4.136-3.903-1.602-5.765-6.051-4.154-9.938l2.023-4.883c1.609-3.887 6.08-5.739 9.983-4.136 3.903 1.602 5.763 6.051 4.152 9.936l-2.023 4.885z" fill="#C07515"/><path d="M348.173 185.902c-.621 2.615-4.395 1.778-5.812.41-1.953-1.879-3.118-7.199 1.208-6.916-3.116-4.682 7.453-9.762 8.564-4.349.826-1.396 1.67-2.651 3.509-2.768 1.323-.084 3.64.935 3.449 2.55 1.966-1.546 4.829-1.427 6.773.136.622.501 1.744 1.614 1.182 2.425-.308.448-1.901.586-2.434.747.92-.415 4.686.422 3.945 1.98-.346.727-2.189.074-2.728-.081 0 0-.006.171 0 .164 2.011 1.098 2.841 2.211 2.599 4.703-.111 1.146-.656 3.312-2.024 3.476-.703.083-1.512-.358-1.5-1.089 1.68 1.669-.7 6.141-2.822 3.936-.832-.865-.431-2.314.358-3.061-1.256-.718-3.979-4.519-2.041-5.535-.906.021-5.099-1.395-3.765-2.596.353 1.392-1.38 3.195-2.759 2.48.857 1.857-1.664 3.244-3.213 3.309.948 1.187-1.975 2.598-2.867.875l.378-.796z" fill="#000"/><path d="M204.524 170.711s-2.454-9.351 9.719-11.573l-.927 11.237-8.792.336z" fill="#A86113"/><path d="M155.745 194.324c-2.665 0-5.143-.537-7.428-1.613-11.059-5.201-12.288-20.829-12.334-21.492-.166-2.358 1.618-4.402 3.985-4.568 2.363-.163 4.415 1.604 4.586 3.956.241 3.145 2.046 11.851 7.452 14.378 4.465 2.086 11.389-.037 20.028-6.144a4.309 4.309 0 015.991 1.01 4.268 4.268 0 01-1.017 5.966c-8.011 5.662-15.13 8.507-21.263 8.507z" fill="#CDE5E8"/><path d="M178.606 202.35c1.195-3.122 2.302-6.291 3.593-9.378a24.476 24.476 0 01-2.637-.347c-4.168-.793-7.699-2.48-10.587-5.064-2.892-2.582-5.125-5.857-6.699-9.816-1.576-3.961-2.491-8.464-2.747-13.512-.258-5.045.151-10.372 1.227-15.981 1.098-5.719 2.695-10.847 4.792-15.39 2.097-4.54 4.611-8.365 7.543-11.468 2.929-3.104 6.216-5.326 9.861-6.667 3.642-1.34 7.548-1.616 11.717-.823 3.301.628 6.207 1.867 8.737 3.694 1.217-2.419 2.526-4.795 3.774-7.164a166.571 166.571 0 004.149-8.535c.559-1.232 1.044-2.499 1.551-3.756-4.224-2.397-8.959-4.098-14.208-5.097-7.435-1.414-14.435-1.146-20.997.802-6.564 1.95-12.472 5.212-17.729 9.791-5.258 4.58-9.718 10.33-13.38 17.243-3.664 6.917-6.31 14.639-7.946 23.16-1.635 8.524-2.035 16.673-1.189 24.444.842 7.773 2.861 14.751 6.053 20.939 3.192 6.186 7.474 11.391 12.855 15.607 5.009 3.929 10.91 6.641 17.704 8.138 1.609-3.57 3.165-7.159 4.563-10.82z" fill="#00AFE2"/><path d="M236.799 138.042c-.845-7.772-2.861-14.753-6.052-20.939-3.192-6.186-7.478-11.388-12.854-15.608a40.508 40.508 0 00-4.571-3.098c-.503 1.255-.984 2.522-1.553 3.748-1.334 2.87-2.671 5.734-4.149 8.535-1.259 2.384-2.581 4.776-3.805 7.213.435.331.86.674 1.272 1.041 2.889 2.585 5.15 5.862 6.782 9.833 1.632 3.972 2.582 8.454 2.851 13.445.267 4.991-.147 10.345-1.244 16.063-1.076 5.609-2.669 10.713-4.777 15.307-2.109 4.599-4.657 8.442-7.644 11.536-2.988 3.093-6.303 5.313-9.945 6.651-2.686.99-5.483 1.4-8.39 1.24-1.429 3.376-2.634 6.854-3.937 10.272-1.29 3.382-2.74 6.697-4.232 9.995.335.07.67.14 1.009.205 7.434 1.415 14.432 1.146 20.994-.803 6.561-1.947 12.473-5.211 17.73-9.79 5.258-4.58 9.717-10.327 13.379-17.245 3.663-6.914 6.312-14.635 7.949-23.158 1.635-8.519 2.03-16.668 1.187-24.443z" fill="#006091"/><path d="M188.69 217.926c-7.435-1.415-13.842-4.233-19.219-8.451-5.381-4.218-9.664-9.421-12.855-15.607-3.193-6.186-5.209-13.165-6.053-20.94-.845-7.771-.447-15.919 1.189-24.443 1.634-8.521 4.281-16.241 7.947-23.158 3.661-6.915 8.122-12.665 13.379-17.244 5.257-4.58 11.165-7.843 17.73-9.792 6.56-1.948 13.559-2.215 20.995-.802 7.435 1.413 13.839 4.231 19.22 8.449 5.379 4.222 9.664 9.422 12.856 15.608s5.207 13.167 6.053 20.939c.842 7.775.448 15.923-1.189 24.444-1.635 8.524-4.285 16.243-7.947 23.158-3.665 6.918-8.122 12.665-13.379 17.245-5.257 4.579-11.168 7.844-17.73 9.79-6.566 1.947-13.562 2.218-20.997.804zm4.003-20.858c4.055.77 7.903.487 11.548-.856 3.642-1.337 6.958-3.558 9.945-6.651 2.985-3.094 5.535-6.937 7.644-11.534 2.109-4.596 3.7-9.698 4.776-15.307 1.098-5.721 1.512-11.074 1.244-16.065-.268-4.991-1.219-9.473-2.848-13.443-1.633-3.972-3.895-7.249-6.783-9.833-2.893-2.583-6.364-4.261-10.418-5.032-4.17-.794-8.076-.517-11.718.823-3.646 1.343-6.932 3.564-9.862 6.668-2.932 3.103-5.446 6.927-7.542 11.468-2.098 4.543-3.694 9.67-4.791 15.39-1.078 5.609-1.486 10.936-1.229 15.981.257 5.047 1.173 9.55 2.748 13.512 1.575 3.96 3.806 7.234 6.699 9.816 2.888 2.583 6.418 4.27 10.587 5.063z" fill="#0076AD"/><path d="M264.491 155.116l.327 15.725s-4.511 4.023-8.551 0l1.49-17.709 6.734 1.984z" fill="#000"/><path d="M245.885 280.551c-.258-.202-2.018-1.019-2.261-1.223-.945 1.41-1.607 2.188-2.744 3.358 2.786 2.417 2.069 5.352 2.069 5.352s-1.97 1.687-2.741 2.068c-2.457 1.205-6.99 2.879-6.99 2.879l11.414.891 8.466-8.634c-2.998-1.668-5.299-3.185-7.213-4.691zm-44.723.615c-1.817-.316-4.112 1.07-5.591 0-.343 3.161-.278 4.885-.278 4.885l-16.888 6.933h21.568c.194-2.288-.217-4.484.092-6.604.158-1.088.899-4.164 1.097-5.214z" fill="#68070B"/><path d="M220.82 204.863l-19.083 36.097s7.732 6.512 15.346 8.681l14.306-42.529-10.569-2.249z" fill="#CDE5E8"/><path d="M241.716 283.589c1.145-1.166 2.09-2.557 3.032-3.968-4.936-4.211-7.352-8.551-14.059-16.018-2.776-3.091 4.576-20.79 6.362-23.758 3.206-5.335 3.702-9.203 6.21-18.334l-18.636 6.931c-4.436 15.82-9.606 31.641-4.423 39.187 5.475 7.979 15.193 14.405 19.883 17.614.177.121 1.475-1.771 1.631-1.654z" fill="#68070B"/><path d="M210.338 168.855c-.256 0-.512-.076-.735-.236a1.254 1.254 0 01-.29-1.755c1.501-2.083 1.831-3.796 1.835-3.813a1.266 1.266 0 011.466-1.014 1.257 1.257 0 011.024 1.448c-.017.091-.409 2.262-2.271 4.845a1.268 1.268 0 01-1.029.525z" fill="#C07515"/><path d="M241.938 225.334c5.548-15.162 10.285-38.956 12.058-48.451a24.126 24.126 0 00-2.735-.932c-1.646-.452-3.618-.985-5.306-.464-.855.267-1.618.705-2.367 1.172a27.119 27.119 0 00-.977 3.799s-11.916 22.676-19.679 38.139c6.593 1.472 13.042 3.628 19.006 6.737z" fill="#F6EE9E"/><path d="M222.708 219.063c-.004-.002-.006-.002-.009-.005a600.103 600.103 0 00-1.947 3.913h-.006c-1.527 2.693-3.173 5.184-4.767 7.577-15.333 23.014-21.124 41.357-22.146 50.039 1.464 1.137 7.001 1.78 8.846 2.099 2.829-14.39 10.19-23.576 23.379-34.429 4.413-3.632 7.714-8.246 10.616-12.078 1.729-2.283 3.444-5.944 5.091-10.378-5.979-3.12-12.452-5.271-19.057-6.738z" fill="#910508"/><path d="M207.829 225.394a4.298 4.298 0 01-4.06-2.877 4.272 4.272 0 012.652-5.442c5.213-1.799 13.209-8.893 18.6-16.502 10.94-15.442 18.619-24.004 18.942-24.362a4.31 4.31 0 016.068-.327 4.263 4.263 0 01.328 6.038c-.076.086-7.696 8.588-18.316 23.58-5.32 7.511-14.729 16.867-22.808 19.655-.464.16-.938.237-1.406.237z" fill="#C07515"/><path d="M250.978 178.299c-.099 0-.199-.004-.3-.01-2.227-.164-3.9-2.092-3.737-4.31.171-2.318 1.072-4.972 1.176-5.269a4.047 4.047 0 015.141-2.49 4.02 4.02 0 012.505 5.115c-.255.74-.686 2.272-.756 3.232-.155 2.117-1.929 3.73-4.029 3.732z" fill="#C07515"/><path d="M252.164 174.053a18.476 18.476 0 002.322 2.212 3.993 3.993 0 00.523-1.699c.07-.96.501-2.492.755-3.233a4.02 4.02 0 00-2.504-5.114 4.053 4.053 0 00-4.638 1.508c.374 2.275 2.239 4.836 3.542 6.326z" fill="#A86113"/><path d="M262.584 165.337c-.094 4.201-3.593 7.532-7.815 7.437-4.222-.095-7.566-3.578-7.471-7.779l.118-5.282c.094-4.203 3.594-7.533 7.815-7.439 4.221.095 7.566 3.577 7.472 7.78l-.119 5.283zm-60.821 58.875c-1.763 0-3.78-.471-6.038-1.417a1.255 1.255 0 01-.675-1.645 1.266 1.266 0 011.655-.674c3.326 1.392 5.974 1.591 7.659.575a1.267 1.267 0 011.735.426c.361.593.17 1.366-.427 1.726-1.116.673-2.422 1.009-3.909 1.009z" fill="#C07515"/><path d="M203.274 226.042c-2.011 0-3.625-.389-5.461-.832l-.569-.135a1.26 1.26 0 11.589-2.447l.575.138c3.065.738 5.091 1.226 9.572.074a1.263 1.263 0 011.539.904 1.261 1.261 0 01-.909 1.535c-2.159.553-3.855.763-5.336.763zm-1.6-4.307c-3.967 0-6.684-2.43-6.821-2.555a1.254 1.254 0 01-.078-1.777 1.269 1.269 0 011.782-.08c.126.113 3.033 2.663 6.943 1.661a1.257 1.257 0 11.63 2.436 9.818 9.818 0 01-2.456.315z" fill="#C07515"/><path d="M204.325 220.383c-.05 0-.099-.005-.148-.008-4.305-.503-6.055-3.587-6.127-3.718a1.258 1.258 0 01.499-1.71 1.268 1.268 0 011.711.49c.059.103 1.253 2.093 4.209 2.438a1.258 1.258 0 01-.144 2.508zm15.104-49.713c-.068 0-.137-.006-.207-.018-2.093-.345-7.814-1.24-9.145-1.24a1.261 1.261 0 01-1.264-1.259c0-.694.566-1.258 1.264-1.258 1.779 0 8.766 1.145 9.557 1.276a1.258 1.258 0 01-.205 2.499z" fill="#C07515"/><path d="M218.617 173.311a1.23 1.23 0 01-.333-.045c-.061-.017-6.07-1.645-8.866-1.803a1.26 1.26 0 01-1.19-1.327c.039-.695.641-1.241 1.333-1.184 3.061.173 9.132 1.819 9.388 1.889a1.257 1.257 0 01-.332 2.47z" fill="#C07515"/><path d="M218.006 176.078c-.13 0-.26-.021-.388-.06-5.691-1.828-7.093-1.94-7.846-2.001a5.487 5.487 0 01-1.054-.161 1.257 1.257 0 01-.898-1.538 1.267 1.267 0 011.546-.895c.201.054.345.066.608.087.916.073 2.45.197 8.421 2.114.663.213 1.028.922.814 1.584-.174.531-.669.87-1.203.87z" fill="#C07515"/><path d="M215.509 178.092c-.03 0-.061-.003-.092-.005-5.698-.406-5.935-3.486-5.943-3.837l2.526-.059s.004-.029-.007-.082c.003.014.263 1.23 3.604 1.468a1.26 1.26 0 01-.088 2.515z" fill="#C07515"/><path d="M210.737 176.581s-1.096-.505-2.806-.505c-1.437 0-3.39-2.427-3.39-4.946 0 0-.702-7.428 7.176-4.068l-.98 9.519z" fill="#C07515"/><path d="M235.543 198.662L224.5 252.785s17.102 4.101 27.592-1.913l2.653-75.201s-11.738-4.089-19.202 22.991z" fill="#CDE5E8"/><path d="M238.098 228.441l10.579-.565s.253 16.103-6.066 15.475c0-.001-8.647 1.88-4.513-14.91zm13.283-54.057a6.34 6.34 0 00-8.922.48c-.324.36-8.051 8.964-19.09 24.545a56.53 56.53 0 01-2.364 3.095l-1.122 1.371 1.223 1.283c1.302 1.371 2.67 2.707 3.991 3.996.717.701 1.434 1.402 2.143 2.109l1.561 1.56 1.42-1.688a67.932 67.932 0 003.476-4.475c10.555-14.9 18.094-23.311 18.17-23.396 2.324-2.579 2.105-6.564-.486-8.88z" fill="#E1F3F6"/><path d="M229.217 213.712l-11.12-9.945 4.269-4.727 11.12 9.943-4.269 4.729z" fill="#F8FDFF"/><path d="M239.621 168.357l9.717 3.79s4.131-20.011 1.117-23.012c-.002.001-10.834-1.021-10.834 19.222z" fill="#000"/><path d="M251.017 152.62c.344.511 7.883 5.519 13.803 4.133 0 0-1.011-8.846-14.83-7.571l1.027 3.438z" fill="#000"/><path d="M252.611 166.746c-2.598 0-4.712-2.104-4.712-4.691 0-2.586 2.114-4.691 4.712-4.691 2.599 0 4.714 2.105 4.714 4.691 0 2.587-2.115 4.691-4.714 4.691zm0-8.411c-2.06 0-3.737 1.669-3.737 3.72 0 2.052 1.677 3.721 3.737 3.721 2.062 0 3.739-1.67 3.739-3.721s-1.677-3.72-3.739-3.72zm10.092 8.625c-2.261 0-4.099-1.83-4.099-4.08s1.838-4.081 4.099-4.081c2.26 0 4.098 1.831 4.098 4.081.001 2.25-1.838 4.08-4.098 4.08zm0-7.317a3.248 3.248 0 00-3.252 3.237 3.248 3.248 0 003.252 3.237 3.247 3.247 0 003.25-3.237 3.247 3.247 0 00-3.25-3.237z" fill="#DDDD67"/><path d="M258.728 162.683c-.596-.594-1.705-.18-1.717-.177l-.354-.903c.069-.028 1.711-.65 2.76.394l-.689.686z" fill="#DDDD67"/><path d="M133.907 169.422c-.099 0-.198-.004-.299-.011-2.228-.162-3.902-2.092-3.739-4.308.172-2.318 1.073-4.973 1.176-5.268a4.048 4.048 0 015.142-2.492 4.02 4.02 0 012.504 5.114c-.254.742-.685 2.272-.756 3.233-.155 2.116-1.929 3.731-4.028 3.732z" fill="#C07515"/><path d="M131.506 281.142c6.698 3.078 12.195 3.015 12.638 3.078 4.367-7.735 17.522-28.685 5.555-45.877l-16.928-9.057c-.001 0 16.928 17.58-1.265 51.856z" fill="#68070B"/><path d="M140.267 287.991s1.564-3.159 2.785-5.281c-.916-.111-5.015-.277-6.7-.921-1.58 3.214-5.025 7.922-7.457 11.151h22.746l-11.374-4.949z" fill="#68070B"/><path d="M168.409 239.349c-2.83-5.466-23.376-21.928-25.238-31.382a45.659 45.659 0 01-.427-2.576c-3.301 1.737-7.584 2.209-10.979 2.382-3.849.194-6.151.432-9.876-1.373.315 5.867-.644 11.532 2.794 17.476 6.824 11.793 29.5 21.89 32.029 25.787 4.987 7.688 6.713 24.376 8.41 34.558 2.67 0 9-.117 11.601-1.035-.878-5.221.548-26.713-8.314-43.837z" fill="#910508"/><path d="M175.488 287.076s-.738-2.978-.96-4.366c-2.603.91-4.117-.006-6.795 0 .406 2.526.105 7.245.341 10.015h21.568l-14.154-5.649z" fill="#68070B"/><path d="M131.92 210.862c3.285-.151 10.185-1.061 12.954-3.816-.567-4.489-2.582-11.709-1.873-17.521 2.406-19.702-7.258-25.607-7.258-25.607s-4.449-3.097-8.055.602c-5.436 5.574-10.741 21.336-10.209 44.639 3.747 1.926 10.503 1.882 14.441 1.703z" fill="#CDE5E8"/><path d="M181.485 217.081c-.322 0-.648-.035-.975-.112-15.574-3.597-28.762-12.886-38.141-26.862-7.028-10.471-9.455-19.869-9.556-20.264a4.274 4.274 0 013.117-5.192 4.295 4.295 0 015.214 3.096c.046.172 2.283 8.626 8.533 17.851 8.246 12.167 19.273 19.921 32.775 23.04a4.274 4.274 0 013.215 5.131 4.298 4.298 0 01-4.182 3.312z" fill="#C07515"/><path d="M172.015 204.23c-8.58-4.045-15.886-10.456-21.712-19.056-6.173-9.112-8.406-17.532-8.425-17.613a5.045 5.045 0 00-4.897-3.796c-.415 0-.833.052-1.239.154a5.013 5.013 0 00-3.104 2.298 4.98 4.98 0 00-.563 3.811l.021.092c.665 2.879 3.321 13.006 9.64 22.42 7.563 11.272 17.825 19.709 29.675 24.402a.754.754 0 00.706-.079.753.753 0 00.332-.624v-11.327a.753.753 0 00-.434-.682z" fill="#E1F3F6"/><path d="M184.673 217.387c-1.377 0-2.839-.153-4.382-.461a1.258 1.258 0 11.495-2.467c3.763.749 6.902.476 9.331-.812a1.267 1.267 0 011.709.519 1.255 1.255 0 01-.521 1.701c-1.908 1.013-4.128 1.52-6.632 1.52z" fill="#C07515"/><path d="M184.854 214.57c-.602 0-1.221-.039-1.851-.131a1.261 1.261 0 01-1.068-1.428 1.263 1.263 0 011.433-1.063c4.041.589 7.783-1.5 7.822-1.521a1.27 1.27 0 011.724.467 1.254 1.254 0 01-.465 1.715c-.159.09-3.476 1.961-7.595 1.961z" fill="#C07515"/><path d="M183.731 212.095c-.196 0-.396-.007-.602-.02a1.258 1.258 0 11.159-2.511c2.99.184 4.559-1.624 4.573-1.641a1.264 1.264 0 011.777-.183 1.25 1.25 0 01.185 1.767c-.09.113-2.158 2.588-6.092 2.588zm-4.367-2.122a1.26 1.26 0 01-1.264-1.257c0-.692.561-1.255 1.258-1.257.113-.002 2.607-.059 4.036-2.107a1.266 1.266 0 011.759-.316c.574.395.716 1.179.318 1.751-2.199 3.152-5.949 3.186-6.107 3.186zm-4.134-28.393a1.26 1.26 0 01-1.028-.524c-1.864-2.584-2.256-4.754-2.272-4.846a1.258 1.258 0 011.032-1.452c.684-.119 1.34.34 1.459 1.026.002.008.333 1.722 1.834 3.804a1.253 1.253 0 01-.29 1.755c-.222.161-.48.237-.735.237z" fill="#C07515"/><path d="M175.494 182.137c-.079 0-.161-.006-.24-.021-2.764-.529-8.25-.535-8.306-.535a1.26 1.26 0 01-1.262-1.257 1.26 1.26 0 011.262-1.257c.235 0 5.781.006 8.782.578a1.257 1.257 0 01-.236 2.492z" fill="#C07515"/><path d="M166.258 184.756a1.263 1.263 0 01-1.253-1.101 1.26 1.26 0 011.098-1.404c.803-.101 7.901-.961 10.197-.555a1.258 1.258 0 11-.442 2.476c-1.447-.253-6.559.218-9.442.575a1.693 1.693 0 01-.158.009z" fill="#C07515"/><path d="M167.899 187.601a1.261 1.261 0 01-1.239-1.019 1.259 1.259 0 011.002-1.474c3.061-.587 3.878-.847 5.361-1.322a95.509 95.509 0 012.845-.871 1.268 1.268 0 011.566.858 1.256 1.256 0 01-.863 1.558c-1.252.363-2.062.622-2.776.85-1.523.489-2.445.783-5.656 1.399-.08.014-.162.021-.24.021z" fill="#C07515"/><path d="M170.622 189.6a1.257 1.257 0 01-.212-2.498c4.093-.699 4.908-2.218 4.913-2.233a1.264 1.264 0 012.4.788c-.162.487-1.254 2.964-6.887 3.925a1.288 1.288 0 01-.214.018z" fill="#C07515"/><path d="M175.491 188.086l-.964-10.254s4.518.327 4.509 5.041c-.002 1.573-.458 3.327-3.545 5.213zm-28.436-33.403c1.14 4.292-1.431 8.693-5.743 9.828-4.313 1.135-8.734-1.423-9.875-5.715l-1.434-5.397c-1.14-4.293 1.43-8.695 5.743-9.83 4.313-1.136 8.733 1.423 9.875 5.717l1.434 5.397z" fill="#C07515"/><path d="M146.296 151.83c-.613 1.703-1.482 3.39-2.816 4.537-3.251 2.793-8.237 3.546-12.193 1.872l.147.556c1.141 4.292 5.561 6.851 9.875 5.715 4.312-1.135 6.883-5.536 5.743-9.828l-.756-2.852z" fill="#000"/><path d="M131.411 158.498c-3.034-1.938-6.311-9.309-1.518-10.921 2.965-.998 1.771 8.099 1.771 10.67l-.253.251z" fill="#000"/><path d="M128.975 148.183c-3.666-2.644.877-10.125 9.937-10.125 5.6 0 5.558 4.27 1.686 6.575-3.213 1.913-8.197.793-10.611 4.054l-1.012-.504z" fill="#000"/><path d="M146.292 153.479c-1.284-1.938-3.814-5.863-4.797-8.073-.623-1.404-1.479-3.799 1.346-2.097 2.365 1.423 3.65 6.441 3.427 8.984l.024 1.186z" fill="#000"/><path d="M82.272 171.369c-1.394 1.284-2.929 2.482-4.187 3.913l-18.242 37.935 13.58-17.45 14.423-29.68c-1.843 1.774-3.69 3.549-5.574 5.282zm-10.817-6.227c1.324-1.801 2.596-3.919 4.102-5.78l-31.93-15.519-30.295 3.019 53.082 24.367c1.74-1.975 3.49-3.976 5.041-6.087z" fill="#006091"/><path d="M76.01 159.584c-1.697 2.113-3.074 4.6-4.704 6.575a327.127 327.127 0 01-4.431 5.285l24.132 11.077 8.761-11.389-23.758-11.548z" fill="#00AFE2"/><path d="M39.673 203.604l9.36-19.464L0 160.775l7.875-16.373 80.744-47.337 22.034 10.5-32.387 67.344 13.344 6.36-9.062 18.843-13.345-6.359-9.359 19.463-20.171-9.612zm36.323-75.532l-1.242-.591-43.193 25.171 26.534 12.646 17.9-37.226z" fill="#0076AD"/><path d="M91.61 181.271l8.16-10.141-6.403 14.132-11.12 15.462 9.364-19.453zm-3.125-15.749l31.841-69.482-9.674 11.526-32.387 67.345c.903-.868 9.705-8.876 10.22-9.389z" fill="#006091"/><path d="M7.873 144.402l14.389-12.468 78.896-45.078-12.54 10.209-80.745 47.337z" fill="#009EE7"/><path d="M88.618 97.065l22.034 10.5 9.674-11.525-19.168-9.184-12.54 10.209z" fill="#00D2FD"/><path d="M61.578 147.816c-2.71-1.918-4.576-1.078-5.879-.878a3.586 3.586 0 01-2.485-.559 1.266 1.266 0 00-1.747.37 1.254 1.254 0 00.373 1.74c.06.039 1.161.737 3.088 1.239-2.102 1.906-4.244 4.21-4.363 4.339a1.253 1.253 0 00.071 1.777 1.263 1.263 0 001.784-.07 90.219 90.219 0 013.185-3.228 112.04 112.04 0 00-3.266 4.303 1.255 1.255 0 00.29 1.756 1.262 1.262 0 001.763-.289c.828-1.15 1.995-2.703 3.11-4.096-.415.816-.94 1.739-1.995 3.427a1.253 1.253 0 00.406 1.733 1.263 1.263 0 001.741-.406c.433-.694.783-1.269 1.076-1.764a1.256 1.256 0 001.172 1.726c.413 0 .818-.201 1.06-.572 1.185-1.814 1.76-3.294 2.006-4.459l.051.039c.703-3.536-.153-5.217-1.441-6.128zm-2.532 8.85c.418-.731.704-1.284.972-1.835a13.467 13.467 0 01-.972 1.835z" fill="#C07515"/><path d="M22.875 162.084c-4-.226-9.806 7.571-3.867 9.693-5.377-.127-6.692 7.439-1.763 9.528-8.632-1.672-7.628 9.463-3.544 13.493-2.767-.441-5.564 2.192-5.145 5.058.422 2.886 1.57 6.887 8.743 9.031 7.173 2.143 11.558-1.871 15.128-5.657 2.285 4.647 13.579-1.632 12.327-7.193 4.262 1.504 8.08-3.311 8.166-7.157.083-3.755-2.558-6.621-5.07-9.06 1.77-1.613 2.105-4.604 1.639-6.889-.774-3.798-5.55-4.176-5.55-7.197 0-1.058.203-4.342-.703-5.786-1.44-2.296-3.949-4.569-7.104-3.447-13.257-6.26-13.257 5.583-13.257 5.583z" fill="#000"/><path d="M30.6 284.22c-3.646-.632-4.235-.451-7.836-1.327l-8.34 10.146h32.351l-18.787-5.032 2.612-3.787zm60.238 2.908l-1.912-2.5c-1.726 1.111-3.522 2.06-5.472 2.736l5.109 5.675h18.955l-16.68-5.911z" fill="#68070B"/><path d="M19.343 284.252c3.624.884 7.247 1.804 10.915 2.423l26.715-32.718-4.55-12.998L33.72 219.49l5.389 30.425-19.765 34.337z" fill="#68070B"/><path d="M55.675 210.481c-7.329-1.936-17.266.513-24.397 3.192 0 0 4.374 17.334 7.245 22.506 8.363 15.056 44.531 52.633 44.531 52.633 1.986-.672 5.813-3.462 7.565-4.59l-34.944-73.741z" fill="#910508"/><path d="M30.306 220.453c7.077-2.646 21.275-7.108 28.56-5.296 0 0-9.648-22.561-14.027-27.538-2.957-3.358-19.094-12.81-19.094-.451.001 16.933 4.561 33.285 4.561 33.285z" fill="#CDE5E8"/><path d="M36.597 186.114a4.88 4.88 0 01-.287.09c-2.155.578-4.375-.692-4.957-2.837-.608-2.245-.637-5.048-.64-5.359-.009-2.224 1.795-4.034 4.029-4.043 2.233-.009 4.049 1.783 4.06 4.004.007.783.108 2.37.359 3.298a4.02 4.02 0 01-2.564 4.847z" fill="#C07515"/><path d="M39.294 182.134a4.082 4.082 0 00-.133-.868c-.251-.928-.354-2.514-.358-3.299-.012-2.22-1.83-4.012-4.061-4.003a4.033 4.033 0 00-4.028 4.042c0 .05.002.173.006.341 1.994 2.24 5.276 3.294 8.574 3.787z" fill="#A86113"/><path d="M43.252 170.066c1.304 3.997-.894 8.29-4.91 9.591-4.016 1.296-8.329-.891-9.635-4.889l-1.639-5.025c-1.304-3.997.894-8.291 4.909-9.59 4.016-1.299 8.33.889 9.634 4.888l1.64 5.025z" fill="#C07515"/><path d="M88.28 166.027a1.255 1.255 0 00-.535-.259l.612-.663a1.255 1.255 0 00-.276-1.929 1.25 1.25 0 00-.17-1.633 1.265 1.265 0 00-1.293-.259c.576-.579.934-.981.977-1.031a1.254 1.254 0 00-.113-1.776 1.268 1.268 0 00-1.783.113c-.03.032-2.777 3.116-5.602 4.719-1.226-1.845-2.871-2.492-2.965-2.527a1.26 1.26 0 00-1.618.72 1.264 1.264 0 00.71 1.628c.057.022 1.023.43 1.774 1.58-.103.285-.225.69-.294 1.164-18.597 25.058-43.257 16.162-44.374 15.741-2.209-.842-4.69.249-5.545 2.447a4.27 4.27 0 002.453 5.533c.3.116 6.337 2.402 14.948 2.402 1.732 0 3.568-.091 5.481-.314 9.284-1.072 23.014-6.396 33.987-20.47.18-.103.434-.26.77-.504a7.22 7.22 0 00.687-.496l-.03-.022c.649-.543 1.45-1.312 2.358-2.392a1.254 1.254 0 00-.158-1.772z" fill="#C07515"/><path d="M54.046 181.681l-1.047.225a37.576 37.576 0 01-7.858.827c-6.519 0-11.048-1.638-11.54-1.822a5.042 5.042 0 00-1.81-.335 5.02 5.02 0 00-4.714 3.214c-.488 1.253-.575 2.679.088 3.848 2.469 4.359 9.245 6.121 18.02 6.121 1.866 0 3.739-.107 5.568-.317a38.711 38.711 0 003.49-.572l.735-.192s-1.052-3.176-1.276-6.403c-.087-1.228.344-4.594.344-4.594z" fill="#E1F3F6"/><path d="M26.898 173.784c2.654-1.679 3.57-4.825 3.279-7.969 2.328 1.558 4.168.607 5.622-2.069 4.41 6.152 11.131-3 1.967-6.315-7.33-2.652-14.516 4.566-12.638 11.823l1.77 4.53z" fill="#000"/><path d="M149.511 6.069c3.533 3.743 5.754 8.733 5.754 14.348a20.674 20.674 0 01-5.754 14.348c-3.361 3.686-8.374 6.069-13.616 6.069-5.469 0-10.482-2.382-13.958-6.069-3.532-3.686-5.64-8.733-5.64-14.348s2.108-10.605 5.64-14.348A19.05 19.05 0 01135.895 0c5.242 0 10.255 2.325 13.616 6.069zm-.74 14.348c0-3.857-1.538-7.429-3.874-9.924-2.393-2.552-5.584-4.026-9.002-4.026-3.646 0-6.837 1.474-9.229 4.026-2.392 2.495-3.874 6.068-3.874 9.924 0 3.857 1.481 7.429 3.874 9.868 2.392 2.552 5.583 4.083 9.229 4.083 3.418 0 6.608-1.53 9.002-4.083 2.336-2.44 3.874-6.013 3.874-9.868zm45.745-14.348c3.533 3.743 5.754 8.733 5.754 14.348a20.674 20.674 0 01-5.754 14.348c-3.361 3.686-8.374 6.069-13.616 6.069-5.469 0-10.482-2.382-13.958-6.069-3.532-3.686-5.64-8.733-5.64-14.348s2.108-10.605 5.64-14.348A19.05 19.05 0 01180.9 0c5.242 0 10.255 2.325 13.616 6.069zm-.74 14.348c0-3.857-1.538-7.429-3.874-9.924-2.393-2.552-5.584-4.026-9.002-4.026-3.646 0-6.837 1.474-9.229 4.026-2.392 2.495-3.874 6.068-3.874 9.924 0 3.857 1.48 7.429 3.874 9.868 2.392 2.552 5.583 4.083 9.229 4.083 3.418 0 6.608-1.53 9.002-4.083 2.335-2.44 3.874-6.013 3.874-9.868zm28.198 4.991h-7.008v12.305c0 1.702-1.424 3.12-3.19 3.12-1.709 0-3.133-1.418-3.133-3.12V4.253a3.117 3.117 0 013.133-3.119h10.198c6.78 0 12.249 5.444 12.249 12.193 0 6.636-5.469 12.08-12.249 12.08zm-7.007-6.295h7.008a5.884 5.884 0 005.925-5.785c-.057-3.289-2.62-5.898-5.925-5.898h-7.008v11.683zm22.788 11.851c1.026-1.247 2.905-1.418 4.158-.397 2.507 2.042 6.837 4.423 10.881 4.368 2.848 0 5.412-.851 7.121-2.099 1.709-1.247 2.45-2.665 2.45-4.083 0-.736-.172-1.247-.513-1.815-.342-.567-.855-1.134-1.709-1.701-1.652-1.077-4.443-2.042-7.806-2.666h-.114c-2.678-.51-5.185-1.19-7.35-2.212-2.165-1.021-4.044-2.439-5.297-4.423-.855-1.361-1.311-2.95-1.311-4.65 0-3.403 1.937-6.352 4.558-8.28C245.503 1.077 248.977 0 252.681 0c5.469 0 9.515 2.666 12.42 4.537 1.311.907 1.709 2.722.798 4.026-.855 1.361-2.678 1.758-4.045.85-2.905-1.927-5.697-3.629-9.172-3.629-2.563 0-4.843.794-6.38 1.928-1.538 1.134-2.165 2.382-2.165 3.572 0 .68.114 1.134.398 1.588.285.454.798.964 1.538 1.475 1.482 1.021 4.044 1.928 7.121 2.495h.114c2.906.568 5.584 1.305 7.862 2.382 2.335 1.134 4.387 2.609 5.697 4.707a9.165 9.165 0 011.368 4.821c0 3.63-2.051 6.749-4.899 8.79-2.791 2.042-6.495 3.233-10.539 3.233-6.154-.057-11.337-3.12-14.585-5.672-1.255-1.019-1.426-2.891-.457-4.139zm35.775-3.799V4.254c0-1.702 1.425-3.12 3.134-3.12 1.71 0 3.077 1.418 3.077 3.12v22.912c0 1.758-1.367 3.12-3.077 3.12a3.12 3.12 0 01-3.134-3.121zm3.133 13.668a3.118 3.118 0 01-3.134-3.12V36.58c0-1.701 1.425-3.12 3.134-3.12 1.709 0 3.077 1.419 3.077 3.12v1.134c0 1.758-1.368 3.12-3.077 3.12z" fill="#910508"/><path d="M124.271 47.514c0-.265.224-.49.491-.49h4.056a4.083 4.083 0 014.077 4.079 4.066 4.066 0 01-4.077 4.058l-3.543.04v5.608a.501.501 0 01-1.003 0V47.514h-.001zm4.547 6.688c1.7-.02 3.094-1.407 3.094-3.1 0-1.691-1.393-3.078-3.094-3.078h-3.543v6.178h3.543zm15.588-2.406v9.013c0 .265-.225.49-.492.49a.497.497 0 01-.492-.49v-1.488c-.86 1.182-2.232 1.977-3.769 1.977-2.642 0-4.753-2.263-4.753-4.996 0-2.733 2.111-4.997 4.753-4.997 1.537 0 2.909.775 3.769 1.958v-1.468c0-.286.225-.49.492-.49s.492.205.492.49zm-.984 4.507c0-2.243-1.699-4.038-3.769-4.038-2.048 0-3.769 1.795-3.769 4.038 0 2.243 1.721 4.017 3.769 4.017 2.069 0 3.769-1.774 3.769-4.017zm14.729 4.2c0 2.59-2.11 4.69-4.732 4.69-.738 0-1.435-.184-2.089-.47-.205-.143-.327-.427-.205-.652.123-.266.41-.368.656-.224a3.657 3.657 0 001.639.367c2.089 0 3.749-1.652 3.749-3.71v-1.225a4.555 4.555 0 01-3.749 1.958c-2.622 0-4.711-2.223-4.711-4.976 0-2.691 2.089-4.955 4.711-4.955 1.536 0 2.909.775 3.749 1.958v-1.468c0-.265.225-.49.512-.49.246 0 .471.225.471.49v8.707h-.001zm-.983-4.242c0-2.222-1.68-3.976-3.749-3.976-2.049 0-3.728 1.754-3.728 3.977 0 2.242 1.679 4.016 3.728 4.016 2.068.001 3.749-1.774 3.749-4.017zm5.017.062c0-2.774 2.171-5.017 4.875-5.017 2.581 0 4.63 2.04 4.834 4.65v.082c0 .265-.225.449-.491.449h-8.235c.102 2.182 1.823 3.834 3.892 3.834 1.332 0 2.56-.693 3.236-1.815a.48.48 0 01.656-.164c.225.164.307.45.164.693-.861 1.366-2.355 2.263-4.056 2.263-2.703 0-4.875-2.243-4.875-4.975zm1.045-.795h7.599c-.327-1.875-1.926-3.242-3.769-3.242-1.884 0-3.461 1.345-3.83 3.242zm25.465-.143a3.084 3.084 0 00-3.093-3.08c-1.7 0-3.073 1.387-3.114 3.08v5.506c-.02.081-.04.163-.102.224a.44.44 0 01-.369.183h-.123a.531.531 0 01-.327-.265c-.02-.02-.02-.04-.02-.062 0-.02-.021-.04-.021-.04v-9.115c0-.265.205-.49.492-.49a.48.48 0 01.471.49v.959a4.077 4.077 0 013.114-1.448c2.253 0 4.076 1.835 4.076 4.058v5.424c0 .285-.225.49-.491.49a.484.484 0 01-.492-.49v-5.424h-.001zm9.667-4.079c2.642 0 4.753 2.285 4.753 4.997 0 2.712-2.111 4.996-4.753 4.996-2.622 0-4.753-2.284-4.753-4.996 0-2.712 2.131-4.996 4.753-4.996zm0 9.014c2.048 0 3.77-1.795 3.77-4.017 0-2.223-1.722-4.038-3.77-4.038s-3.769 1.815-3.769 4.038c0 2.223 1.721 4.017 3.769 4.017zm11.635-8.524c0 .245-.247.49-.492.49h-1.29v7.279c0 .49.492.735.738.735s.512.265.512.509c0 .245-.267.49-.512.49-1.003 0-1.762-.735-1.762-1.734v-7.28h-1.249c-.492 0-.492-.245-.492-.489 0-.245 0-.49.492-.49h1.249v-3.71c0-.245.247-.49.492-.49.267 0 .532.246.532.49v3.71h1.29c.245 0 .492.246.492.49zm15.26-4.242c0 .266-.225.49-.492.49-.696 0-1.065.143-1.27.387-.225.245-.409.735-.409 1.652v1.06h1.414c.287 0 .512.224.512.49a.505.505 0 01-.512.509h-1.414v8.687c0 .265-.225.49-.492.49a.501.501 0 01-.512-.49v-8.687h-1.332a.501.501 0 01-.491-.51c0-.265.225-.489.491-.489h1.332v-1.06c.021-1.02.185-1.774.656-2.325.492-.53 1.23-.713 2.028-.713.266 0 .491.225.491.51zm7.028 3.752c2.642 0 4.752 2.285 4.752 4.997 0 2.712-2.11 4.996-4.752 4.996-2.622 0-4.753-2.284-4.753-4.996 0-2.712 2.131-4.996 4.753-4.996zm0 9.014c2.048 0 3.769-1.795 3.769-4.017 0-2.223-1.721-4.038-3.769-4.038-2.049 0-3.77 1.815-3.77 4.038 0 2.223 1.721 4.017 3.77 4.017zm7.986-8.544c0-.286.225-.49.492-.49s.492.204.492.49v5.444a3.096 3.096 0 003.073 3.1c1.721-.02 3.113-1.387 3.113-3.1v-5.444c0-.286.247-.49.492-.49.287 0 .512.204.512.49v5.444c0 2.243-1.824 4.078-4.117 4.078-2.253 0-4.057-1.835-4.057-4.078v-5.444zm19.442 3.609a3.085 3.085 0 00-3.094-3.08c-1.699 0-3.073 1.387-3.113 3.08v5.506c-.021.081-.041.163-.103.224a.44.44 0 01-.369.183h-.122a.53.53 0 01-.328-.265c-.02-.02-.02-.04-.02-.062 0-.02-.02-.04-.02-.04v-9.115c0-.265.205-.49.491-.49a.48.48 0 01.472.49v.959a4.076 4.076 0 017.19 2.61v5.424c0 .285-.225.49-.492.49a.484.484 0 01-.491-.49v-5.424h-.001zm13.009 3.976a4.779 4.779 0 01-3.851 1.937c-2.705 0-4.855-2.243-4.855-4.975 0-2.773 2.15-5.016 4.855-5.016 1.577 0 2.97.774 3.851 1.957v-5.75a.501.501 0 011.003 0v13.295a.501.501 0 01-1.003 0v-1.448zm0-2.874v-.326c-.082-2.141-1.782-3.854-3.851-3.854-2.111 0-3.852 1.795-3.852 4.016 0 2.203 1.741 3.977 3.852 3.977 2.069 0 3.769-1.694 3.851-3.813z" fill="#C07515"/></svg>