<svg width="77" height="47" viewBox="0 0 77 47" fill="none" xmlns="http://www.w3.org/2000/svg">
<path d="M57.0943 18.7205C57.0943 29.0038 48.7649 37.3514 38.4986 37.3514C28.2323 37.3514 19.9028 29.015 19.9028 18.7205C19.9028 8.42592 28.2323 0.0895691 38.4986 0.0895691C48.7649 0.0895691 57.0943 8.42592 57.0943 18.7205Z" fill="#D8DFE1"/>
<path d="M38.4983 0C28.1984 0 19.813 8.3923 19.813 18.7204C19.813 29.0373 28.1984 37.4408 38.4983 37.4408C48.7982 37.4408 57.1836 29.0373 57.1836 18.7204C57.1836 8.3923 48.7982 0 38.4983 0ZM38.4983 37.2506C28.2992 37.2506 19.9921 28.9366 19.9921 18.7092C19.9921 8.493 28.2992 0.179036 38.4983 0.179036C48.6974 0.179036 57.0045 8.49301 57.0045 18.7204C57.0045 28.9366 48.6974 37.2506 38.4983 37.2506Z" fill="#232021"/>
<path d="M24.0795 21.5627L24.1355 21.9096L21.6165 22.3012L21.5605 21.9543L22.7808 21.7641L21.3702 20.7234L21.2918 20.2535L22.4785 21.1487L23.7996 19.8283L23.878 20.2759L22.7584 21.3613L23.195 21.6969L24.0795 21.5627Z" fill="#232021"/>
<path d="M23.81 17.7022V19.6045L21.2686 19.5933V17.7246H21.5709V19.2464H22.3546V17.8477H22.6568V19.2464H23.5077V17.7022H23.81Z" fill="#232021"/>
<path d="M21.6163 15.2516L21.6611 14.9159L24.1689 15.3299L24.1129 15.7216L21.8738 16.6727L21.8626 16.6839L23.9002 17.0196L23.8442 17.3441L21.3364 16.9301L21.3924 16.5272L23.6427 15.5873L21.6163 15.2516Z" fill="#232021"/>
<path d="M24.6384 13.8641L24.5264 14.1998L23.5636 13.8641L21.8059 14.3005L21.9403 13.9201L23.3397 13.6068L22.4105 12.5102L22.5448 12.1297L23.6756 13.5396L24.6384 13.8641Z" fill="#232021"/>
<path d="M25.6577 11.5814L25.8256 11.2345L23.1275 10.9436L22.9595 11.2905L24.818 13.2822L24.9747 12.9689L24.4262 12.3982L24.874 11.4695L25.6577 11.5814ZM24.1911 12.1744L23.3738 11.3128V11.3016L24.5493 11.4583L24.1911 12.1744Z" fill="#232021"/>
<path d="M25.5564 7.32931L25.7803 7.06076L27.7507 8.66089L27.538 8.92945L26.6088 8.17973L25.7691 9.23157L26.6871 9.97009L26.4632 10.2498L24.4928 8.63851L24.7167 8.36996L25.534 9.03015L26.3736 7.98951L25.5564 7.32931Z" fill="#232021"/>
<path d="M29.0042 5.82994C28.6459 5.41592 27.907 5.0019 27.1905 5.63972C26.4628 6.26634 26.7539 7.06081 27.1233 7.47483C27.4816 7.88885 28.2205 8.30287 28.9482 7.66506C29.6647 7.02724 29.3624 6.24396 29.0042 5.82994ZM28.7355 7.43007C28.3101 7.79934 27.7727 7.68744 27.3808 7.23985C26.989 6.79226 26.9554 6.23277 27.3808 5.8747C27.7951 5.50544 28.3436 5.61734 28.7355 6.06493C29.1385 6.51252 29.1609 7.06081 28.7355 7.43007Z" fill="#232021"/>
<path d="M30.4934 4.28562C30.2695 3.96111 29.9337 4.02825 29.6762 4.17372C29.4858 4.28562 29.2059 4.53179 29.4075 4.85629C29.5194 5.04652 29.6874 5.02414 29.8329 4.97938L30.5494 4.7444C30.8741 4.64369 31.1987 4.67726 31.4003 5.02414C31.7137 5.53887 31.3107 5.97527 30.9412 6.19906C30.5382 6.44523 30.3031 6.42285 30.1464 6.38929C29.8553 6.33334 29.7097 6.17668 29.5866 5.97527L29.8665 5.80742C30.1016 6.19906 30.4934 6.12073 30.7733 5.95289C30.986 5.81861 31.3219 5.55006 31.1316 5.23674C30.9972 5.01295 30.8405 5.00176 30.4263 5.13604L29.9113 5.30388C29.7433 5.35983 29.3627 5.46054 29.1276 5.08009C28.9261 4.7444 28.9484 4.27443 29.4746 3.94992C30.2471 3.47996 30.5942 3.89398 30.7509 4.11777L30.4934 4.28562Z" fill="#232021"/>
<path d="M33.1916 3.04367C33.0348 2.66322 32.6542 2.49537 32.2176 2.66322L31.154 3.11081L32.1168 5.46065L32.4415 5.33756L32.0272 4.34168L32.7773 4.03955C33.2923 3.81576 33.3259 3.36817 33.1916 3.04367ZM32.5534 3.80457L31.9153 4.07312L31.5794 3.25627L32.2288 2.98772C32.4975 2.87582 32.7438 2.88701 32.8557 3.18913C32.9901 3.50245 32.8445 3.69267 32.5534 3.80457Z" fill="#232021"/>
<path d="M34.625 4.55425L34.2892 4.64377L33.5951 2.19322L33.9309 2.1037L34.625 4.55425Z" fill="#232021"/>
<path d="M34.4687 1.92472L36.5287 1.56665L36.5734 1.85758L35.7226 2.01424L36.1144 4.21862L35.7786 4.28576L35.3867 2.07019L34.5247 2.22684L34.4687 1.92472Z" fill="#232021"/>
<path d="M37.7926 1.49956L37.4008 1.52194L36.5723 4.11795L36.9306 4.10677L37.1545 3.34586L38.1845 3.28991L38.4756 4.01725L38.8562 3.99487L37.7926 1.49956ZM37.2441 3.02136L37.5911 1.88001H37.6023L38.0389 2.9766L37.2441 3.02136Z" fill="#232021"/>
<path d="M39.4623 3.74867L40.761 3.86057L40.7274 4.16269L39.0929 4.01723L39.3168 1.47716L39.6526 1.51073L39.4623 3.74867Z" fill="#232021"/>
<path d="M43.749 2.29386L43.3684 2.18196L41.7003 4.34158L42.0473 4.45348L42.5175 3.81566L43.5027 4.11778L43.5251 4.90107L43.8834 5.01296L43.749 2.29386ZM42.7079 3.54711L43.4244 2.59598H43.4356L43.4691 3.78209L42.7079 3.54711Z" fill="#232021"/>
<path d="M46.2686 4.16256C46.4253 3.80449 46.179 3.54713 45.9215 3.42404C45.7312 3.33452 45.3729 3.22262 45.205 3.56951C45.1155 3.75973 45.2162 3.89401 45.3394 3.99472L45.9215 4.46468C46.1902 4.67729 46.3246 4.96822 46.1454 5.33748C45.8879 5.88578 45.3058 5.78507 44.9027 5.59485C44.4773 5.38224 44.3654 5.18083 44.3094 5.03536C44.1974 4.76681 44.2534 4.5542 44.3542 4.3416L44.6452 4.48706C44.4437 4.90108 44.7236 5.19202 45.0147 5.33748C45.2386 5.43819 45.6528 5.57247 45.8096 5.24797C45.9215 5.01298 45.8544 4.8787 45.5185 4.61015L45.1043 4.27446C44.9699 4.16256 44.6788 3.89401 44.8803 3.49118C45.0595 3.13311 45.4625 2.89812 46.0223 3.16668C46.8284 3.55832 46.6828 4.07304 46.5709 4.33041L46.2686 4.16256Z" fill="#232021"/>
<path d="M48.4295 5.53892C48.6422 5.20323 48.4407 4.92349 48.2056 4.75564C48.0265 4.63255 47.6906 4.46471 47.4667 4.78921C47.3435 4.96825 47.4331 5.11371 47.5339 5.22561L48.0377 5.77391C48.2728 6.03127 48.3623 6.33339 48.1272 6.66909C47.7914 7.16143 47.2316 6.9824 46.8621 6.72503C46.4703 6.45648 46.4031 6.23269 46.3695 6.07603C46.3024 5.7851 46.3807 5.59487 46.5263 5.39346L46.795 5.58368C46.5263 5.96413 46.7614 6.28863 47.0301 6.47886C47.2428 6.62433 47.6234 6.81455 47.8249 6.51243C47.9705 6.28863 47.9257 6.15436 47.6346 5.82986L47.2652 5.42703C47.1532 5.30394 46.9069 4.99063 47.1644 4.62136C47.3883 4.29686 47.8249 4.12902 48.3399 4.4759C49.0788 4.99063 48.8437 5.47178 48.6982 5.71796L48.4295 5.53892Z" fill="#232021"/>
<path d="M50.6236 6.36693C49.9407 5.69554 49.1682 6.05361 48.7876 6.44526C48.4069 6.8369 48.0598 7.60899 48.7428 8.28037C49.4257 8.95175 50.187 8.59368 50.5676 8.20204C50.9707 7.82159 51.3065 7.0495 50.6236 6.36693ZM50.3213 7.96706C49.9071 8.39227 49.3585 8.4706 48.9555 8.07896C48.5636 7.68731 48.6196 7.13902 49.0339 6.71381C49.4593 6.27741 49.9967 6.21027 50.3997 6.60191C50.8027 6.98236 50.7468 7.53066 50.3213 7.96706Z" fill="#232021"/>
<path d="M52.3588 9.7909C52.661 9.45521 52.5155 9.09714 52.3699 8.89572C52.1013 8.51527 51.5975 8.41456 51.0601 8.80621C50.5675 9.15309 50.3212 9.60068 50.7018 10.1154C50.825 10.3056 51.1384 10.5518 51.6982 10.3056L51.8885 10.5854C51.0265 11.0218 50.5339 10.4063 50.4219 10.2497C50.0861 9.77971 50.0637 9.09714 50.8586 8.52646C51.4967 8.06768 52.202 8.12363 52.6386 8.72788C53.0193 9.26498 52.8849 9.7909 52.5715 10.0706L52.3588 9.7909Z" fill="#232021"/>
<path d="M51.4514 11.7939L51.2946 11.4918L53.5226 10.2609L53.6793 10.563L51.4514 11.7939Z" fill="#232021"/>
<path d="M54.363 11.973L51.6425 12.0513L51.7769 12.387L52.5605 12.3534L52.9524 13.3046L52.3702 13.8193L52.5158 14.1662L54.5198 12.3311L54.363 11.973ZM54.0719 12.2863L53.1875 13.0584L52.8852 12.3199L54.0719 12.2863Z" fill="#232021"/>
<path d="M54.8214 13.1032L55.3812 15.1174L55.0901 15.1957L54.855 14.3565L52.6943 14.9607L52.6047 14.625L54.7655 14.0208L54.5304 13.1815L54.8214 13.1032Z" fill="#232021"/>
<path d="M53.0192 16.4601L52.952 16.1132L55.4598 15.688L55.527 16.0237L53.0192 16.4601Z" fill="#232021"/>
<path d="M54.3964 16.7734C53.8478 16.7958 53.0754 17.1315 53.1089 18.0826C53.1537 19.0449 53.9486 19.3023 54.5084 19.2687C55.057 19.2463 55.8406 18.9218 55.7959 17.9595C55.7399 17.0084 54.945 16.751 54.3964 16.7734ZM54.4972 18.9218C53.8926 18.9442 53.4448 18.6309 53.4224 18.0714C53.4 17.5119 53.8143 17.1539 54.4188 17.1315C55.0122 17.0979 55.46 17.4112 55.4936 17.9707C55.516 18.5414 55.0905 18.8995 54.4972 18.9218Z" fill="#232021"/>
<path d="M55.5048 21.6634L55.46 21.9991L52.941 21.6634L52.9858 21.283L55.1913 20.2535L55.2025 20.2423L53.1649 19.9738L53.1985 19.6381L55.7287 19.9738L55.6727 20.3878L53.4672 21.3948L55.5048 21.6634Z" fill="#232021"/>
<path d="M24.8844 29.0597L25.7128 30.078L25.4777 30.2682L24.4366 28.9814L26.3958 27.3812L26.6197 27.6386L24.8844 29.0597Z" fill="#232021"/>
<path d="M29.0942 30.1787L27.9858 31.4095C27.6388 31.8012 27.1014 31.9019 26.5752 31.4319C26.0602 30.9731 26.1386 30.4472 26.4521 30.0891L27.594 28.8247L27.8515 29.0597L26.7767 30.257C26.4073 30.671 26.5528 31.0067 26.7879 31.2193C27.023 31.4319 27.3813 31.5662 27.7507 31.1522L28.8255 29.9549L29.0942 30.1787Z" fill="#232021"/>
<path d="M29.7882 33.6811L29.4299 33.4461L29.4075 32.1929L28.2432 32.6964L27.8961 32.4614L29.3739 31.8684L29.318 30.3466L29.6762 30.5815L29.6986 31.7677L30.7734 31.2977L31.1204 31.5103L29.721 32.0922L29.7882 33.6811Z" fill="#232021"/>
<path d="M31.6125 34.5204L31.2879 34.3861L32.2843 32.0362L32.5977 32.1705L31.6125 34.5204Z" fill="#232021"/>
<path d="M34.6806 32.8754L35.0053 32.9649L34.2776 35.4154L33.9082 35.3035L33.2364 32.9537L32.6431 34.9231L32.3296 34.8224L33.0573 32.383L33.4491 32.4949L34.0873 34.8448H34.0985L34.6806 32.8754Z" fill="#232021"/>
<path d="M35.9689 33.1663L38.0401 33.3901L38.0065 33.6922L37.1444 33.6027L36.8981 35.8294L36.5511 35.7847L36.7974 33.5579L35.9353 33.4684L35.9689 33.1663Z" fill="#232021"/>
<path d="M40.2219 35.9191L38.3299 35.9415L38.2963 33.4014L40.1659 33.3678L40.1771 33.6811L38.6434 33.7035L38.6545 34.4756L40.0652 34.4644V34.7665L38.6657 34.7889L38.6769 35.6393L40.2219 35.6169V35.9191Z" fill="#232021"/>
<path d="M42.1598 32.9874L42.4844 32.9202L42.9994 35.4155L42.6188 35.4939L40.9283 33.7483H40.9171L41.3313 35.7624L41.0066 35.8296L40.4916 33.3342L40.8947 33.2559L42.5628 35.0127H42.574L42.1598 32.9874Z" fill="#232021"/>
<path d="M45.5975 34.4868L43.8286 35.1694L42.9217 32.7859L44.6682 32.1146L44.769 32.4055L43.3472 32.9426L43.627 33.6811L44.9369 33.1776L45.0489 33.4573L43.7278 33.9609L44.0413 34.7553L45.4855 34.207L45.5975 34.4868Z" fill="#232021"/>
<path d="M47.5899 32.5621C47.3772 32.1817 47.0637 32.2265 46.8846 32.2488C47.0637 31.9915 46.9965 31.7565 46.9181 31.6222C46.7502 31.3201 46.392 31.1858 45.9777 31.4096L44.9813 31.9579L46.224 34.1847L47.1868 33.6476C47.6906 33.3678 47.7802 32.9202 47.5899 32.5621ZM45.4291 32.0474L45.9777 31.7453C46.3136 31.5551 46.5039 31.5998 46.6271 31.8012C46.7726 32.081 46.6495 32.26 46.3584 32.4279L45.8098 32.73L45.4291 32.0474ZM47.0301 33.3902L46.3808 33.7483L45.9441 32.965L46.5375 32.6293C46.7838 32.495 47.0973 32.4055 47.2652 32.7076C47.4219 32.965 47.3436 33.2223 47.0301 33.3902Z" fill="#232021"/>
<path d="M50.1978 31.4543C50.0746 31.4655 50.0299 31.4431 49.9403 31.3312L49.638 30.9843C49.4141 30.7158 49.2574 30.7494 49.1006 30.7941C49.1678 30.6151 49.235 30.3913 49.0111 30.0892C48.6864 29.6639 48.261 29.8094 47.9251 30.0668L46.9847 30.8053L48.5521 32.8194L48.8207 32.6068L48.149 31.7452L48.8096 31.2305C49.1342 30.9731 49.3133 31.141 49.4477 31.3088C49.5037 31.3872 49.75 31.6893 49.8843 31.7788L50.2202 31.5214L50.1978 31.4543ZM48.608 31.0067L47.9811 31.4991L47.4437 30.8165L48.1266 30.2794C48.261 30.1787 48.5073 30.022 48.7536 30.3353C48.9887 30.6375 48.8096 30.8612 48.608 31.0067Z" fill="#232021"/>
<path d="M50.9258 30.7941L50.6795 31.0403L48.8994 29.2164L49.1457 28.9702L50.9258 30.7941Z" fill="#232021"/>
<path d="M51.0599 27.8848C50.7352 27.6499 50.4441 27.8401 50.2538 28.0639C50.1195 28.2317 49.9403 28.5674 50.2426 28.8024C50.4106 28.9367 50.5561 28.8584 50.6792 28.7688L51.2614 28.2989C51.5301 28.0863 51.8436 28.0191 52.1571 28.2653C52.6273 28.6346 52.4034 29.1829 52.1347 29.5297C51.8436 29.9102 51.6197 29.9661 51.4629 29.9885C51.1719 30.0333 50.9815 29.9438 50.7912 29.7871L51.0039 29.5297C51.3622 29.8207 51.698 29.6081 51.9108 29.3507C52.0675 29.1493 52.2802 28.78 51.9891 28.5562C51.7876 28.3884 51.6421 28.4331 51.295 28.7017L50.8696 29.0374C50.7352 29.1493 50.4106 29.3731 50.0635 29.0933C49.75 28.8472 49.6045 28.3996 49.9963 27.9072C50.5561 27.2023 51.0263 27.4596 51.2502 27.6275L51.0599 27.8848Z" fill="#232021"/>
<path d="M24.2463 25.2999C24.2463 25.6356 23.9776 25.9041 23.6418 25.9041C23.3059 25.9041 23.0372 25.6356 23.0372 25.2999C23.0372 24.9642 23.3059 24.6956 23.6418 24.6956C23.9776 24.6956 24.2463 24.9642 24.2463 25.2999Z" fill="#232021"/>
<path d="M53.4342 25.2999C53.4342 25.6356 53.1656 25.9041 52.8297 25.9041C52.4938 25.9041 52.2251 25.6356 52.2251 25.2999C52.2251 24.9642 52.4938 24.6956 52.8297 24.6956C53.1656 24.6956 53.4342 24.9642 53.4342 25.2999Z" fill="#232021"/>
<path d="M52.2692 18.7205C52.2692 26.3407 46.1004 32.5175 38.4987 32.5175C30.8969 32.5175 24.7282 26.3407 24.7282 18.7205C24.717 11.0891 30.8857 4.9236 38.4987 4.9236C46.1004 4.9236 52.2692 11.0891 52.2692 18.7205Z" fill="#910508"/>
<path d="M36.8527 28.0974L35.5317 30.2905L35.4757 25.0538L31.1206 28.0974L33.0798 23.1851L27.9411 24.2705L31.658 20.8352L26.5976 19.6155L31.5125 17.9147L27.2694 14.6025L32.4081 15.1508L30.0235 10.2385L34.3785 13.0695L34.1098 7.53063L37.1326 11.8499L39.159 6.70259L40.0323 12.096L43.9395 7.97822L42.708 13.2486L47.7684 11.0554L44.5329 15.4418L50.0858 15.5537L45.2942 18.1833L50.3545 20.5555L45.0367 21.0254L48.5185 25.2775L43.5141 23.6998L44.9471 28.7911L41.107 25.2664L40.4465 30.5143L38.1514 25.9154L36.8527 28.0974Z" fill="#C07515"/>
<path d="M39.1588 15.6768C39.1588 15.6768 39.6738 13.9424 38.599 13.9424C37.3115 13.9424 37.7146 15.7552 37.7146 15.7552L35.9457 17.1091V22.1557L38.3863 23.4649H38.5095L40.7821 22.1892V17.0867L39.1588 15.6768Z" fill="#232021"/>
<path d="M38.0622 14.9272C38.0622 14.5915 38.2301 14.3118 38.4428 14.3118C38.6443 14.3118 38.8123 14.5803 38.8123 14.9272C38.8123 15.2629 38.6443 15.5426 38.4428 15.5426C38.2301 15.5314 38.0622 15.2629 38.0622 14.9272Z" fill="#D8DFE1"/>
<path d="M38.0055 21.8983C37.9159 22.0774 37.7816 22.0326 37.6696 22.0102C36.4605 21.7641 36.5053 21.6969 36.5053 21.5962C36.5053 21.3948 36.5053 20.4884 36.5053 20.4884C36.6732 20.4884 37.8375 20.8577 38.0391 20.9136C38.4085 21.0367 38.095 21.7193 38.0055 21.8983Z" fill="#D8DFE1"/>
<path d="M38.0055 20.2423C37.9159 20.4213 37.7816 20.3766 37.6696 20.3542C36.4605 20.108 36.5053 20.0409 36.5053 19.9402C36.5053 19.7388 36.5053 18.8324 36.5053 18.8324C36.6732 18.8324 37.8375 19.2017 38.0391 19.2576C38.4085 19.3695 38.095 20.0521 38.0055 20.2423Z" fill="#D8DFE1"/>
<path d="M38.0055 18.6644C37.9159 18.8435 37.7816 18.7987 37.6696 18.7763C36.4605 18.5301 36.5053 18.463 36.5053 18.3623C36.5053 18.1497 36.5053 17.2545 36.5053 17.2545C36.6732 17.2545 37.8375 17.6238 38.0391 17.6797C38.4085 17.7916 38.095 18.4742 38.0055 18.6644Z" fill="#D8DFE1"/>
<path d="M39.0253 22.0102C38.9133 22.0326 38.779 22.0774 38.6894 21.8983C38.5887 21.7193 38.2752 21.0367 38.6447 20.9248C38.8462 20.8577 40.0217 20.4996 40.1784 20.4996C40.1896 20.4996 40.1896 21.3948 40.1896 21.5962C40.1896 21.7081 40.2344 21.764 39.0253 22.0102Z" fill="#D8DFE1"/>
<path d="M40.1896 19.9401C40.1896 20.0408 40.2344 20.1079 39.0253 20.3541C38.9133 20.3765 38.779 20.4101 38.6894 20.2422C38.5887 20.0632 38.2752 19.3806 38.6447 19.2687C38.8462 19.2016 40.0217 18.8435 40.1896 18.8435C40.1896 18.8323 40.1896 19.7275 40.1896 19.9401Z" fill="#D8DFE1"/>
<path d="M40.1896 18.3624C40.1896 18.4632 40.2344 18.5303 39.0253 18.7765C38.9133 18.7988 38.779 18.8436 38.6894 18.6646C38.5887 18.4855 38.2752 17.803 38.6447 17.6911C38.8462 17.6239 40.0217 17.2659 40.1896 17.2659C40.1896 17.2547 40.1896 18.1498 40.1896 18.3624Z" fill="#D8DFE1"/>
<path d="M3.97161 42.0733C3.82607 42.0845 3.55738 42.1293 3.42303 42.1629H0.534586C0.411435 42.1405 0.120352 42.0845 0.0195922 42.0733L0.00839664 42.0957C-0.00279888 42.3083 -0.00279888 42.9685 0.00839664 43.2147L0.120352 43.1811C0.19872 43.0469 0.445022 42.5769 0.52339 42.3979L1.63175 42.4538V44.3449C1.63175 45.8555 1.62055 46.0009 1.60936 46.2359L0.892843 46.4485L0.836865 46.6164C1.20632 46.6164 1.56457 46.6052 1.92283 46.6052C2.26989 46.6052 2.63934 46.6164 2.9864 46.6164L3.04238 46.4485L2.2587 46.2359C2.2587 46.0345 2.21391 45.8555 2.21391 44.1211V42.4538L3.38944 42.3979C3.42303 42.5097 3.60216 43.0357 3.66933 43.2035L3.78129 43.1476C3.84846 42.879 3.96041 42.2636 3.97161 42.0733Z" fill="#910508"/>
<path d="M8.61832 46.2248C8.59593 46.1465 8.57353 45.0611 8.57353 44.3002V42.5322L9.11092 42.3308L9.1669 42.163C8.9094 42.163 8.59593 42.1742 8.28245 42.1742C8.09213 42.1742 7.9018 42.163 7.70028 42.163L7.64431 42.2972L7.98017 42.5322V44.054H5.62911V42.5322L5.9202 42.3196L5.96498 42.163C5.78585 42.163 5.58433 42.1742 5.32684 42.1742C5.08053 42.1742 4.80065 42.163 4.55434 42.163L4.49837 42.3196L5.03575 42.5098V44.2554C5.03575 45.0723 5.00217 46.0682 4.99097 46.236L4.48717 46.4374L4.42 46.6053C4.68869 46.6053 5.01336 46.5941 5.30444 46.5941C5.52835 46.5941 5.71868 46.6053 5.88661 46.6053L5.94259 46.4486L5.62911 46.2025C5.60672 45.5087 5.62911 44.9492 5.62911 44.3897H7.10692C7.46518 44.3897 7.82344 44.3785 7.98017 44.345C7.98017 44.9716 7.99137 45.5646 7.96898 46.2248L7.70028 46.4374L7.6555 46.6053C7.84583 46.6053 8.05854 46.5941 8.28245 46.5941C8.59593 46.5941 8.9094 46.6053 9.18929 46.6053L9.24527 46.4374L8.61832 46.2248Z" fill="#910508"/>
<path d="M12.8612 45.5423C12.7045 45.7213 12.4134 46.1465 12.279 46.3368L10.846 46.2808C10.8236 45.7213 10.8236 44.8933 10.8236 44.4457C11.0139 44.4457 12.0551 44.524 12.1559 44.524C12.2343 44.524 12.5365 44.1883 12.5589 44.1324L12.5365 44.0764C12.1223 44.1212 11.4506 44.1548 10.8236 44.1548V42.4763L12.1895 42.4204C12.2455 42.5658 12.4134 42.9798 12.4806 43.1477L12.5925 43.0917C12.6373 42.8791 12.7493 42.2973 12.7604 42.1182L12.7493 42.107C12.6261 42.107 12.2566 42.163 12.1895 42.1742H10.5101C10.2415 42.1742 9.96157 42.163 9.68168 42.163L9.6369 42.3196L10.2191 42.5099V44.3002C10.2191 45.4304 10.1967 46.1801 10.1743 46.2584L9.60331 46.4487L9.54733 46.6165C9.82722 46.6165 10.1631 46.6053 10.4654 46.6053H11.5289C11.9208 46.6053 12.3126 46.6053 12.7493 46.6277C12.8276 46.4039 12.9732 45.7549 12.9844 45.5423H12.8612Z" fill="#910508"/>
<path d="M19.0964 42.174C18.8837 42.174 18.6598 42.1628 18.4135 42.1628L18.3463 42.3195L18.9173 42.5544C18.9173 42.9797 18.962 45.4302 18.962 45.7435H18.9396C18.044 44.7253 17.0924 43.6287 16.1967 42.5209C16.0624 42.353 15.9616 42.1852 15.9392 42.1404L15.0212 42.174L14.954 42.3306C15.3683 42.4649 15.4243 42.4425 15.6929 42.8454C15.6594 44.8036 15.5922 45.9226 15.5698 46.2135L15.0212 46.4597L14.9764 46.6275C15.2227 46.6275 15.5026 46.6163 15.7601 46.6163C16.0512 46.6163 16.2975 46.6275 16.555 46.6275L16.5998 46.4597L15.984 46.2135C15.9392 45.9226 15.9281 44.3 15.9392 43.1475H15.9504C17.3387 44.8707 18.5254 46.3254 19.1188 46.7506L19.1971 46.717C19.2195 46.5492 19.2307 46.2471 19.2307 46.0345C19.2419 44.7924 19.2979 42.8678 19.3091 42.5656L19.8801 42.3418L19.9248 42.174C19.645 42.1628 19.3427 42.174 19.0964 42.174Z" fill="#910508"/>
<path d="M23.9225 46.0681C23.2731 44.4568 22.6126 42.7783 22.5118 42.4986C22.4335 42.2636 22.4111 42.1405 22.4111 42.0398L22.3663 42.0062L21.8625 42.3307L21.9297 42.5098C21.952 42.5769 21.9408 42.644 21.9073 42.7224C21.3587 44.1211 20.631 45.8219 20.4295 46.2136L19.9592 46.4374L19.9145 46.6052C20.1496 46.6052 20.3735 46.594 20.6086 46.594C20.8661 46.594 21.1684 46.6052 21.4035 46.6052L21.4482 46.4486L20.8549 46.2248C20.9668 45.9003 21.0676 45.6429 21.3139 45.0051C22.2319 45.0163 22.5342 44.9939 22.8141 44.9715C23.0828 45.6205 23.2731 46.0905 23.3179 46.2695L23.0716 46.4597L23.0268 46.6052C23.2843 46.6052 23.5082 46.594 23.7433 46.594C24.012 46.594 24.2919 46.6052 24.5382 46.6052L24.583 46.4486C24.1464 46.3031 24.0456 46.2471 23.9225 46.0681ZM21.4482 44.6582C21.5938 44.2218 21.7729 43.7966 22.0864 42.9685H22.0976C22.2767 43.4721 22.4782 43.998 22.7245 44.6918C22.4446 44.6918 21.6386 44.6582 21.4482 44.6582Z" fill="#910508"/>
<path d="M26.15 46.2472C26.1388 46.1241 26.1164 45.408 26.1164 44.289V42.521L26.609 42.3308L26.6538 42.1741C26.3851 42.1741 26.094 42.1853 25.8141 42.1853C25.5566 42.1853 25.2879 42.1741 25.0305 42.1741L24.9857 42.3308L25.5231 42.521V44.3002C25.5231 45.4192 25.5119 46.1465 25.4783 46.2584L24.9521 46.4598L24.9073 46.6277C25.176 46.6277 25.4895 46.6165 25.8253 46.6165C26.1724 46.6165 26.4747 46.6277 26.7322 46.6277L26.777 46.4598L26.15 46.2472Z" fill="#910508"/>
<path d="M30.4821 45.9114C30.1015 45.4191 29.5977 44.6917 29.4521 44.4456V44.4344C29.9335 44.2777 30.5045 43.9756 30.5045 43.2483C30.5045 42.4986 29.9559 42.1181 28.8588 42.1181C28.3214 42.1181 27.5825 42.1852 27.269 42.2524L27.213 42.4202L27.784 42.4986V44.4568C27.784 45.3407 27.7504 45.9786 27.7392 46.2359L27.2354 46.4485L27.1906 46.6164C27.4817 46.6164 27.7728 46.6052 28.0639 46.6052C28.3886 46.6052 28.6908 46.6164 29.0155 46.6164L29.0603 46.4485L28.3998 46.2359C28.3886 45.9002 28.3886 45.3855 28.3886 44.4568V42.3867C29.1722 42.3643 29.8664 42.5097 29.8664 43.3602C29.8664 44.0315 29.385 44.3113 28.7468 44.4791L28.7244 44.5239C29.1611 45.2065 29.6313 45.8555 29.9223 46.18C30.2022 46.4933 30.4933 46.6835 31.0083 46.7171L31.0531 46.6611C30.9747 46.538 30.8628 46.415 30.4821 45.9114Z" fill="#910508"/>
<path d="M33.7624 42.0398C32.7213 42.0398 31.4114 42.8342 31.4114 44.4232C31.4114 45.9898 32.6541 46.7171 33.7736 46.7171C34.882 46.7171 36.1471 45.9898 36.1135 44.3001C36.1023 42.7559 34.8372 42.0398 33.7624 42.0398ZM33.852 46.4821C32.7772 46.4821 32.1167 45.4191 32.1167 44.3225C32.1167 43.1699 32.6989 42.286 33.7065 42.286H33.7177C34.7029 42.286 35.4082 43.2595 35.4082 44.3784C35.4194 45.3967 35.0051 46.4821 33.852 46.4821Z" fill="#910508"/>
<path d="M38.8229 44.2218V44.177C39.3267 44.0987 39.9313 43.7966 39.9313 43.1364C39.9313 42.409 39.3155 42.1181 38.2743 42.1181C37.8489 42.1181 37.0428 42.1741 36.7293 42.2076L36.6734 42.3643L37.2443 42.4986V44.6694C37.2443 45.5869 37.2219 46.1464 37.1996 46.2471L36.707 46.4373L36.6622 46.6052C37.0988 46.6164 37.513 46.6276 37.9609 46.6276C38.8789 46.6276 40.2111 46.4709 40.2111 45.3184C40.2223 44.7141 39.8081 44.3225 38.8229 44.2218ZM37.8489 42.3755H38.0504C38.4646 42.3755 38.7333 42.4202 38.9349 42.5321C39.17 42.6552 39.2931 42.8678 39.2931 43.1811C39.2931 43.9308 38.6102 44.1099 37.8489 44.1211V42.3755ZM39.517 45.3072C39.517 45.5422 39.4722 45.7883 39.2931 45.9898C39.0804 46.2247 38.7445 46.3702 37.8713 46.3702C37.8265 45.8667 37.8489 45.1058 37.8489 44.5575V44.3784C39.2819 44.3337 39.517 44.8036 39.517 45.3072Z" fill="#910508"/>
<path d="M41.9357 46.2472C41.9245 46.1241 41.9021 45.408 41.9021 44.289V42.521L42.3947 42.3308L42.4395 42.1741C42.1596 42.1741 41.8797 42.1853 41.5998 42.1853C41.3311 42.1853 41.0736 42.1741 40.8161 42.1741L40.7713 42.3308L41.2975 42.521V44.3002C41.2975 45.4192 41.2863 46.1465 41.2527 46.2584L40.7265 46.4598L40.6818 46.6277C40.9505 46.6277 41.2639 46.6165 41.5998 46.6165C41.9469 46.6165 42.2491 46.6277 42.4954 46.6277L42.5402 46.4598L41.9357 46.2472Z" fill="#910508"/>
<path d="M48.7419 46.2248C48.7083 46.1465 48.6971 45.0611 48.6971 44.3002V42.5322L49.2345 42.3308L49.2905 42.163C49.0218 42.163 48.7083 42.1742 48.3949 42.1742C48.2045 42.1742 48.003 42.163 47.8127 42.163L47.7567 42.2972L48.0926 42.5322V44.054H45.7527V42.5322L46.0438 42.3196L46.0998 42.163C45.9095 42.163 45.7191 42.1742 45.4504 42.1742C45.2041 42.1742 44.9243 42.163 44.678 42.163L44.6108 42.3196L45.1482 42.5098V44.2554C45.1482 45.0723 45.1146 46.0682 45.1034 46.236L44.5996 46.4374L44.5436 46.6053C44.8123 46.6053 45.137 46.5941 45.4281 46.5941C45.6632 46.5941 45.8423 46.6053 46.0102 46.6053L46.0662 46.4486L45.7639 46.2025C45.7415 45.5087 45.7527 44.9492 45.7527 44.3897H47.2193C47.5776 44.3897 47.9359 44.3785 48.0926 44.345C48.0926 44.9716 48.1038 45.5646 48.0926 46.2248L47.8239 46.4374L47.7791 46.6053C47.9694 46.6053 48.171 46.5941 48.4061 46.5941C48.7195 46.5941 49.033 46.6053 49.3129 46.6053L49.3689 46.4374L48.7419 46.2248Z" fill="#910508"/>
<path d="M52.2131 42.0398C51.1719 42.0398 49.8733 42.8342 49.8733 44.4232C49.8733 45.9898 51.116 46.7171 52.2355 46.7171C53.3439 46.7171 54.609 45.9898 54.5754 44.3001C54.5642 42.7559 53.2879 42.0398 52.2131 42.0398ZM52.3139 46.4821C51.2391 46.4821 50.5786 45.4191 50.5786 44.3225C50.5786 43.1699 51.1607 42.286 52.1683 42.286H52.1795C53.1759 42.286 53.8701 43.2595 53.8701 44.3784C53.8701 45.3967 53.4558 46.4821 52.3139 46.4821Z" fill="#910508"/>
<path d="M57.2841 44.3002C56.9034 44.0987 56.5452 43.9309 56.2765 43.7631C56.019 43.6064 55.8846 43.4162 55.8846 43.1029C55.8846 42.7 56.1981 42.3308 56.7243 42.3308C57.0042 42.3308 57.2281 42.4315 57.3177 42.4986C57.3624 42.6217 57.4744 42.991 57.5528 43.1588L57.6535 43.1029C57.7543 42.8567 57.8774 42.2636 57.8886 42.0846L57.8327 42.051C57.6759 42.107 57.4744 42.1853 57.3848 42.2636C57.2505 42.1629 56.993 42.051 56.6683 42.051C55.8063 42.051 55.3249 42.6665 55.3249 43.2707C55.3249 43.6735 55.504 44.0428 55.963 44.3225C56.2877 44.524 56.6235 44.6806 56.9706 44.8708C57.3065 45.0611 57.4632 45.2849 57.4632 45.587C57.4632 46.1353 57.0602 46.4598 56.4556 46.471C56.0974 46.4822 55.8846 46.3926 55.7951 46.3479C55.6607 45.6877 55.6159 45.4975 55.5824 45.4079L55.4704 45.4527C55.4144 45.5534 55.2017 46.1129 55.1681 46.2919C55.3584 46.471 55.9518 46.7395 56.4892 46.7395C57.0602 46.7395 58.0678 46.471 58.0678 45.4079C58.079 45.0275 57.9558 44.647 57.2841 44.3002Z" fill="#910508"/>
<path d="M60.1167 44.6247L60.1839 44.7925C60.251 44.8149 60.3294 44.8261 60.4526 44.8261C60.9787 44.8261 61.9192 44.5128 61.9192 43.4385C61.9192 43.0805 61.7736 42.6553 61.3706 42.4091C61.0459 42.1965 60.6429 42.1293 60.0943 42.1293C59.7249 42.1293 59.1763 42.1741 58.6837 42.2301L58.6277 42.3867L59.1763 42.521V44.233C59.1763 45.7772 59.1763 46.1129 59.1539 46.2472L58.6837 46.4598L58.6389 46.6164C58.9076 46.6164 59.1875 46.6052 59.4562 46.6052C59.8032 46.6052 60.1503 46.6164 60.4973 46.6164L60.5645 46.4486L59.8256 46.236C59.8256 46.1241 59.7808 45.8108 59.7808 44.2106V42.3867C60.6205 42.3643 61.2586 42.6217 61.2586 43.4833C61.2586 44.1099 60.9004 44.5687 60.1167 44.6247Z" fill="#910508"/>
<path d="M63.5875 46.2472C63.5763 46.1241 63.554 45.408 63.554 44.289V42.521L64.0466 42.3308L64.0913 42.1741C63.8114 42.1741 63.5316 42.1853 63.2629 42.1853C62.9942 42.1853 62.7367 42.1741 62.468 42.1741L62.4232 42.3308L62.9494 42.521V44.3002C62.9494 45.4192 62.9382 46.1465 62.9046 46.2584L62.3784 46.4598L62.3336 46.6277C62.5911 46.6277 62.9158 46.6165 63.2517 46.6165C63.5987 46.6165 63.901 46.6277 64.1585 46.6277L64.2033 46.4598L63.5875 46.2472Z" fill="#910508"/>
<path d="M68.7044 42.0733C68.5588 42.0845 68.2901 42.1293 68.1446 42.1629H65.2673C65.1442 42.1405 64.8531 42.0845 64.7523 42.0733L64.73 42.0957C64.7188 42.3083 64.7188 42.9685 64.73 43.2147L64.8419 43.1811C64.9203 43.0468 65.1666 42.5769 65.2561 42.3978L66.3645 42.4538V44.3448C66.3645 45.8555 66.3533 46.0009 66.3421 46.2359L65.6256 46.4485L65.5808 46.6164C65.9503 46.6164 66.3085 46.6052 66.6668 46.6052C67.0138 46.6052 67.3721 46.6164 67.7192 46.6164L67.7863 46.4485L66.9915 46.2359C66.9915 46.0345 66.9467 45.8555 66.9467 44.1211V42.4538L68.1222 42.3978C68.1558 42.5097 68.3349 43.0357 68.3909 43.2035L68.5028 43.1475C68.57 42.879 68.682 42.2636 68.6932 42.0733H68.7044Z" fill="#910508"/>
<path d="M72.5889 46.0681C71.9396 44.4568 71.2791 42.7783 71.1783 42.4986C71.0999 42.2636 71.0775 42.1405 71.0775 42.0398L71.0327 42.0062L70.5289 42.3307L70.5961 42.5098C70.6185 42.5769 70.6073 42.644 70.5737 42.7224C70.0252 44.1211 69.2974 45.8219 69.0959 46.2136L68.6257 46.4374L68.5809 46.6052C68.816 46.6052 69.04 46.594 69.2751 46.594C69.5326 46.594 69.8348 46.6052 70.0699 46.6052L70.1147 46.4486L69.5214 46.2248C69.6333 45.9003 69.7341 45.6429 69.9804 45.0051C70.8984 45.0163 71.2119 44.9939 71.4806 44.9715C71.7493 45.6205 71.9284 46.0905 71.9844 46.2695L71.7381 46.4597L71.6933 46.6052C71.9508 46.6052 72.1747 46.594 72.4098 46.594C72.6673 46.594 72.9584 46.6052 73.2047 46.6052L73.2495 46.4486C72.8128 46.3031 72.7121 46.2471 72.5889 46.0681ZM70.1147 44.6582C70.2603 44.2218 70.4394 43.7966 70.7417 42.9685H70.7529C70.932 43.4721 71.1335 43.998 71.391 44.6918C71.1223 44.6918 70.305 44.6582 70.1147 44.6582Z" fill="#910508"/>
<path d="M76.8768 45.4863C76.7201 45.6542 76.4178 46.1129 76.2499 46.3703L74.8057 46.2808C74.7945 46.1689 74.7833 45.3632 74.7833 44.289V42.521L75.2535 42.3196L75.3095 42.163C75.052 42.163 74.7721 42.1742 74.481 42.1742C74.1787 42.1742 73.91 42.163 73.6749 42.163L73.6189 42.3196L74.1787 42.521V44.289C74.1787 45.3408 74.1675 46.1577 74.1563 46.2472L73.5965 46.4486L73.5518 46.6053C73.8428 46.6053 74.1675 46.5941 74.4922 46.5941C75.9924 46.5941 76.541 46.6165 76.7761 46.6165C76.8432 46.4374 76.9776 45.7661 77 45.4639L76.8768 45.4863Z" fill="#910508"/>
</svg>
