<svg width="132" height="82" viewBox="0 0 132 82" fill="none" xmlns="http://www.w3.org/2000/svg">
<path d="M97.876 33.0562C97.876 50.6849 83.5969 64.9949 65.9976 64.9949C48.3982 64.9949 34.1191 50.704 34.1191 33.0562C34.1191 15.4084 48.3982 1.11755 65.9976 1.11755C83.5969 1.11755 97.876 15.4084 97.876 33.0562Z" fill="#D8DFE1"/>
<path d="M65.9971 0.96405C48.3401 0.96405 33.9651 15.3508 33.9651 33.0562C33.9651 50.7424 48.3401 65.1483 65.9971 65.1483C83.654 65.1483 98.029 50.7424 98.029 33.0562C98.029 15.3508 83.654 0.96405 65.9971 0.96405ZM65.9971 64.8222C48.5129 64.8222 34.2722 50.5697 34.2722 33.037C34.2722 15.5235 48.5129 1.27097 65.9971 1.27097C83.4813 1.27097 97.722 15.5235 97.722 33.0562C97.722 50.5697 83.4813 64.8222 65.9971 64.8222Z" fill="#232021"/>
<path d="M41.2791 37.9286L41.3751 38.5233L37.0568 39.1947L36.9609 38.6L39.0528 38.2739L36.6346 36.4899L36.5002 35.6843L38.5346 37.2189L40.7993 34.9554L40.9337 35.7226L39.0144 37.5833L39.7629 38.1588L41.2791 37.9286Z" fill="#232021"/>
<path d="M40.8171 31.3108V34.5718L36.4604 34.5526V31.3491H36.9786V33.9579H38.3221V31.5601H38.8403V33.9579H40.2989V31.3108H40.8171Z" fill="#232021"/>
<path d="M37.0565 27.1096L37.1333 26.5341L41.4324 27.2439L41.3364 27.9153L37.498 29.5458L37.4788 29.565L40.9718 30.1404L40.8758 30.6967L36.5767 29.987L36.6727 29.2964L40.5303 27.6851L37.0565 27.1096Z" fill="#232021"/>
<path d="M42.2373 24.7311L42.0454 25.3066L40.3948 24.7311L37.3817 25.4792L37.612 24.827L40.011 24.2899L38.418 22.41L38.6483 21.7578L40.5868 24.1748L42.2373 24.7311Z" fill="#232021"/>
<path d="M43.9845 20.8178L44.2724 20.2232L39.6471 19.7244L39.3592 20.3191L42.5451 23.7335L42.8138 23.1964L41.8734 22.2181L42.6411 20.626L43.9845 20.8178ZM41.4703 21.8345L40.0693 20.3574V20.3383L42.0845 20.6068L41.4703 21.8345Z" fill="#232021"/>
<path d="M43.8109 13.5286L44.1947 13.0682L47.5726 15.8113L47.2079 16.2717L45.615 14.9864L44.1755 16.7896L45.7493 18.0556L45.3655 18.5352L41.9876 15.7729L42.3715 15.3125L43.7725 16.4443L45.2119 14.6603L43.8109 13.5286Z" fill="#232021"/>
<path d="M49.7215 10.9582C49.1073 10.2485 47.8406 9.53871 46.6123 10.6321C45.3648 11.7063 45.8638 13.0683 46.4972 13.778C47.1113 14.4878 48.378 15.1975 49.6255 14.1041C50.8538 13.0107 50.3356 11.668 49.7215 10.9582ZM49.2609 13.7013C48.5316 14.3343 47.6103 14.1425 46.9386 13.3752C46.2669 12.6079 46.2093 11.6488 46.9386 11.0349C47.6487 10.4019 48.5891 10.5937 49.2609 11.361C49.9518 12.1283 49.9902 13.0683 49.2609 13.7013Z" fill="#232021"/>
<path d="M52.2744 8.31084C51.8906 7.75455 51.3148 7.86964 50.8734 8.11901C50.5471 8.31084 50.0673 8.73285 50.4128 9.28914C50.6047 9.61524 50.8926 9.57688 51.1421 9.50015L52.3704 9.09732C52.927 8.92468 53.4836 8.98222 53.829 9.57688C54.3664 10.4593 53.6755 11.2074 53.0421 11.591C52.3512 12.013 51.9482 11.9747 51.6795 11.9171C51.1805 11.8212 50.931 11.5527 50.7199 11.2074L51.1997 10.9196C51.6027 11.591 52.2744 11.4568 52.7543 11.169C53.1189 10.9388 53.6947 10.4784 53.3684 9.94134C53.1381 9.55769 52.8694 9.53851 52.1593 9.7687L51.2764 10.0564C50.9886 10.1523 50.336 10.325 49.933 9.67279C49.5875 9.09732 49.6259 8.29166 50.5279 7.73537C51.8522 6.92971 52.4472 7.63945 52.7159 8.0231L52.2744 8.31084Z" fill="#232021"/>
<path d="M56.8998 6.18174C56.6311 5.52954 55.9786 5.2418 55.2301 5.52954L53.4068 6.29683L55.0573 10.3251L55.6139 10.1141L54.9038 8.4069L56.1897 7.88897C57.0725 7.50533 57.1301 6.73803 56.8998 6.18174ZM55.8058 7.48614L54.7119 7.94652L54.1361 6.54621L55.2493 6.08583C55.7099 5.894 56.1321 5.91319 56.324 6.43111C56.5543 6.96822 56.3048 7.29432 55.8058 7.48614Z" fill="#232021"/>
<path d="M59.3572 8.77138L58.7815 8.92484L57.5916 4.72389L58.1673 4.57043L59.3572 8.77138Z" fill="#232021"/>
<path d="M59.0892 4.26356L62.6206 3.64972L62.6973 4.14846L61.2387 4.41702L61.9104 8.19595L61.3347 8.31104L60.6629 4.51293L59.1851 4.78148L59.0892 4.26356Z" fill="#232021"/>
<path d="M64.7873 3.53467L64.1156 3.57303L62.6954 8.02335L63.3095 8.00417L63.6934 6.69976L65.4591 6.60385L65.9581 7.85071L66.6106 7.81234L64.7873 3.53467ZM63.8469 6.14347L64.4419 4.18687H64.4611L65.2096 6.06674L63.8469 6.14347Z" fill="#232021"/>
<path d="M67.6497 7.39036L69.876 7.58219L69.8184 8.10011L67.0164 7.85074L67.4002 3.49634L67.976 3.55389L67.6497 7.39036Z" fill="#232021"/>
<path d="M74.9983 4.89635L74.3458 4.70453L71.4861 8.40673L72.0811 8.59856L72.8872 7.50516L74.5761 8.02308L74.6145 9.36585L75.2286 9.55767L74.9983 4.89635ZM73.2135 7.04478L74.4418 5.41428H74.461L74.5185 7.44761L73.2135 7.04478Z" fill="#232021"/>
<path d="M79.3176 8.0999C79.5863 7.48607 79.164 7.04487 78.7226 6.83387C78.3963 6.68041 77.7822 6.48858 77.4943 7.08324C77.3408 7.40934 77.5135 7.63953 77.7246 7.81217L78.7226 8.61783C79.1832 8.98229 79.4135 9.48104 79.1065 10.1141C78.665 11.054 77.667 10.8814 76.9761 10.5553C76.2468 10.1908 76.0549 9.8455 75.9589 9.59613C75.767 9.13575 75.863 8.77129 76.0357 8.40682L76.5347 8.65619C76.1892 9.36594 76.669 9.86468 77.168 10.1141C77.5519 10.2867 78.262 10.5169 78.5307 9.9606C78.7226 9.55777 78.6075 9.32758 78.0317 8.8672L77.3216 8.29173C77.0913 8.0999 76.5923 7.63953 76.9377 6.94896C77.2448 6.33512 77.9357 5.93229 78.8953 6.39267C80.2772 7.06405 80.0277 7.94645 79.8358 8.38764L79.3176 8.0999Z" fill="#232021"/>
<path d="M83.022 10.4593C83.3867 9.88387 83.0412 9.40431 82.6382 9.11658C82.3311 8.90557 81.7554 8.61784 81.3715 9.17413C81.1604 9.48104 81.3139 9.73041 81.4867 9.92224L82.3503 10.8622C82.7534 11.3034 82.9069 11.8213 82.5039 12.3968C81.9281 13.2408 80.9685 12.9339 80.3351 12.4927C79.6634 12.0323 79.5482 11.6487 79.4907 11.3801C79.3755 10.8814 79.5099 10.5553 79.7594 10.21L80.22 10.5361C79.7594 11.1883 80.1624 11.7446 80.623 12.0707C80.9877 12.32 81.6402 12.6461 81.9857 12.1282C82.2352 11.7446 82.1584 11.5144 81.6594 10.9581L81.026 10.2675C80.8341 10.0565 80.4119 9.51941 80.8533 8.88639C81.2372 8.3301 81.9857 8.04236 82.8685 8.63702C84.1352 9.51941 83.7322 10.3443 83.4827 10.7663L83.022 10.4593Z" fill="#232021"/>
<path d="M86.7833 11.8788C85.6126 10.7278 84.2883 11.3416 83.6358 12.013C82.9832 12.6844 82.3883 14.008 83.559 15.1589C84.7297 16.3099 86.0348 15.6961 86.6874 15.0247C87.3783 14.3725 87.9541 13.0489 86.7833 11.8788ZM86.2651 14.6218C85.555 15.3508 84.6146 15.485 83.9237 14.8137C83.2519 14.1423 83.3479 13.2023 84.058 12.4734C84.7873 11.7253 85.7086 11.6102 86.3995 12.2816C87.0904 12.9338 86.9944 13.8737 86.2651 14.6218Z" fill="#232021"/>
<path d="M89.7578 17.7485C90.276 17.173 90.0265 16.5592 89.777 16.2139C89.3164 15.5617 88.4528 15.3891 87.5315 16.0604C86.6871 16.6551 86.2648 17.4224 86.9174 18.3048C87.1285 18.6309 87.6659 19.0529 88.6255 18.6309L88.9518 19.1104C87.474 19.8586 86.6295 18.8035 86.4376 18.535C85.8618 17.7293 85.8234 16.5592 87.1861 15.5809C88.28 14.7944 89.4891 14.8903 90.2376 15.9262C90.8902 16.8469 90.6599 17.7485 90.1225 18.228L89.7578 17.7485Z" fill="#232021"/>
<path d="M88.2024 21.1822L87.9337 20.6642L91.7529 18.5542L92.0216 19.0721L88.2024 21.1822Z" fill="#232021"/>
<path d="M93.1938 21.4892L88.53 21.6234L88.7603 22.1989L90.1038 22.1414L90.7755 23.7719L89.7775 24.6543L90.027 25.2489L93.4624 22.103L93.1938 21.4892ZM92.6948 22.0263L91.1786 23.3499L90.6604 22.0838L92.6948 22.0263Z" fill="#232021"/>
<path d="M93.9797 23.4267L94.9393 26.8795L94.4403 27.0138L94.0373 25.5751L90.3332 26.6109L90.1796 26.0355L93.8837 24.9996L93.4807 23.5609L93.9797 23.4267Z" fill="#232021"/>
<path d="M90.89 29.1814L90.7748 28.5868L95.0739 27.8578L95.1891 28.4333L90.89 29.1814Z" fill="#232021"/>
<path d="M93.251 29.7185C92.3106 29.7568 90.9863 30.3323 91.0439 31.9628C91.1206 33.6125 92.4833 34.0537 93.4429 33.9961C94.3833 33.9578 95.7268 33.4015 95.65 31.7518C95.5541 30.1213 94.1914 29.6801 93.251 29.7185ZM93.4237 33.4015C92.3873 33.4399 91.6196 32.9028 91.5813 31.9436C91.5429 30.9845 92.253 30.3707 93.2894 30.3323C94.3066 30.2748 95.0743 30.8119 95.1318 31.771C95.1702 32.7493 94.4409 33.3631 93.4237 33.4015Z" fill="#232021"/>
<path d="M95.1511 38.1013L95.0743 38.6768L90.756 38.1013L90.8328 37.4491L94.6137 35.6843L94.6329 35.6652L91.1399 35.2048L91.1975 34.6293L95.5349 35.2048L95.439 35.9145L91.6581 37.6409L95.1511 38.1013Z" fill="#232021"/>
<path d="M42.659 50.7807L44.0792 52.5263L43.6762 52.8524L41.8913 50.6464L45.25 47.9034L45.6338 48.3445L42.659 50.7807Z" fill="#232021"/>
<path d="M49.8758 52.6989L47.9757 54.809C47.3808 55.4804 46.4595 55.653 45.5575 54.8473C44.6746 54.0609 44.809 53.1593 45.3464 52.5454L47.304 50.3778L47.7454 50.7807L45.9029 52.8332C45.2696 53.5429 45.5191 54.1184 45.9221 54.4829C46.3252 54.8473 46.9393 55.0775 47.5727 54.3678L49.4151 52.3153L49.8758 52.6989Z" fill="#232021"/>
<path d="M51.0655 58.7031L50.4513 58.3002L50.4129 56.1518L48.4169 57.015L47.822 56.6122L50.3553 55.5955L50.2594 52.9867L50.8735 53.3896L50.9119 55.4229L52.7544 54.6172L53.3493 54.9817L50.9503 55.9792L51.0655 58.7031Z" fill="#232021"/>
<path d="M54.1929 60.1418L53.6363 59.9116L55.3444 55.8833L55.8818 56.1135L54.1929 60.1418Z" fill="#232021"/>
<path d="M59.4526 57.3218L60.0091 57.4753L58.7616 61.6762L58.1283 61.4844L56.9768 57.4561L55.9596 60.8322L55.4222 60.6596L56.6697 56.4778L57.3414 56.6696L58.4354 60.6979H58.4546L59.4526 57.3218Z" fill="#232021"/>
<path d="M61.6609 57.8206L65.2115 58.2042L65.1539 58.7222L63.6761 58.5687L63.2539 62.386L62.6589 62.3093L63.0811 58.492L61.6033 58.3385L61.6609 57.8206Z" fill="#232021"/>
<path d="M68.9519 62.5396L65.7084 62.5779L65.6508 58.2235L68.8559 58.166L68.8751 58.7031L66.2458 58.7415L66.265 60.065L68.6832 60.0459V60.5638L66.2842 60.6021L66.3034 62.06L68.9519 62.0216V62.5396Z" fill="#232021"/>
<path d="M72.2739 57.5138L72.8305 57.3987L73.7133 61.6764L73.0608 61.8107L70.1628 58.8182H70.1436L70.8537 62.2711L70.2971 62.3862L69.4142 58.1085L70.1052 57.9742L72.9648 60.9858H72.984L72.2739 57.5138Z" fill="#232021"/>
<path d="M78.167 60.0843L75.1347 61.2544L73.5801 57.1686L76.5741 56.0176L76.7468 56.5164L74.3094 57.4371L74.7892 58.7031L77.0347 57.8399L77.2266 58.3195L74.9619 59.1827L75.4993 60.5447L77.9751 59.6047L78.167 60.0843Z" fill="#232021"/>
<path d="M81.5826 56.7849C81.218 56.1327 80.6806 56.2094 80.3735 56.2478C80.6806 55.8066 80.5655 55.4038 80.4311 55.1736C80.1432 54.6557 79.5291 54.4255 78.819 54.8091L77.1108 55.749L79.2412 59.5664L80.8917 58.6456C81.7554 58.166 81.9089 57.3987 81.5826 56.7849ZM77.8785 55.9025L78.819 55.3846C79.3947 55.0585 79.721 55.1352 79.9321 55.4805C80.1816 55.9601 79.9705 56.267 79.4715 56.5547L78.5311 57.0726L77.8785 55.9025ZM80.623 58.2044L79.5099 58.8182L78.7614 57.4755L79.7786 56.9C80.2008 56.6698 80.7382 56.5163 81.0261 57.0343C81.2948 57.4755 81.1604 57.9167 80.623 58.2044Z" fill="#232021"/>
<path d="M86.0534 54.8857C85.8422 54.9049 85.7655 54.8666 85.6119 54.6747L85.0937 54.0801C84.7099 53.6197 84.4412 53.6773 84.1725 53.754C84.2877 53.4471 84.4028 53.0634 84.019 52.5455C83.4624 51.8166 82.7331 52.0659 82.1573 52.5071L80.5452 53.7732L83.2321 57.226L83.6927 56.8615L82.5412 55.3845L83.6735 54.5021C84.2301 54.0609 84.5372 54.3486 84.7675 54.6364C84.8634 54.7706 85.2857 55.2886 85.516 55.442L86.0918 55.0008L86.0534 54.8857ZM83.3281 54.1184L82.2533 54.9625L81.3321 53.7923L82.5028 52.8716C82.7331 52.699 83.1553 52.4304 83.5776 52.9675C83.9806 53.4854 83.6735 53.8691 83.3281 54.1184Z" fill="#232021"/>
<path d="M87.3014 53.754L86.8792 54.176L83.8276 51.0493L84.2498 50.6273L87.3014 53.754Z" fill="#232021"/>
<path d="M87.5312 48.7667C86.9747 48.3638 86.4757 48.6899 86.1494 49.0736C85.9191 49.3613 85.612 49.9368 86.1302 50.3396C86.4181 50.5698 86.6676 50.4355 86.8787 50.2821L87.8767 49.4764C88.3373 49.1119 88.8747 48.9968 89.4121 49.4189C90.2182 50.0519 89.8343 50.9918 89.3737 51.5865C88.8747 52.2387 88.4908 52.3346 88.2221 52.3729C87.7231 52.4497 87.3969 52.2962 87.0706 52.0277L87.4353 51.5865C88.0494 52.0852 88.6252 51.7207 88.9898 51.2795C89.2585 50.9343 89.6232 50.3012 89.1242 49.9176C88.7787 49.6299 88.5292 49.7066 87.9343 50.167L87.205 50.7424C86.9747 50.9343 86.4181 51.3179 85.8231 50.8384C85.2857 50.4163 85.0362 49.649 85.708 48.805C86.6676 47.5965 87.4736 48.0377 87.8575 48.3255L87.5312 48.7667Z" fill="#232021"/>
<path d="M41.5651 44.3352C41.5651 44.9107 41.1045 45.3711 40.5288 45.3711C39.953 45.3711 39.4924 44.9107 39.4924 44.3352C39.4924 43.7598 39.953 43.2994 40.5288 43.2994C41.1045 43.2994 41.5651 43.7598 41.5651 44.3352Z" fill="#232021"/>
<path d="M91.6015 44.3352C91.6015 44.9107 91.1409 45.3711 90.5651 45.3711C89.9894 45.3711 89.5287 44.9107 89.5287 44.3352C89.5287 43.7598 89.9894 43.2994 90.5651 43.2994C91.1409 43.2994 91.6015 43.7598 91.6015 44.3352Z" fill="#232021"/>
<path d="M89.6042 33.0564C89.6042 46.1196 79.0293 56.7083 65.9977 56.7083C52.9661 56.7083 42.3911 46.1196 42.3911 33.0564C42.3719 19.974 52.9469 9.40448 65.9977 9.40448C79.0293 9.40448 89.6042 19.974 89.6042 33.0564Z" fill="#910508"/>
<path d="M63.1761 49.1309L60.9114 52.8907L60.8155 43.9133L53.3496 49.1309L56.7083 40.7099L47.899 42.5706L54.2709 36.6816L45.5959 34.5907L54.0214 31.675L46.7475 25.997L55.5568 26.9369L51.4688 18.5158L58.9346 23.369L58.474 13.8737L63.6559 21.2781L67.1297 12.4542L68.6267 21.7001L75.3248 14.641L73.2137 23.6759L81.8886 19.9161L76.342 27.4356L85.8614 27.6275L77.6471 32.1353L86.322 36.202L77.2057 37.0077L83.1745 44.297L74.5955 41.5923L77.0521 50.3202L70.4692 44.2778L69.3368 53.2743L65.4024 45.3904L63.1761 49.1309Z" fill="#C07515"/>
<path d="M67.1293 27.8386C67.1293 27.8386 68.0122 24.8653 66.1697 24.8653C63.9626 24.8653 64.6535 27.9729 64.6535 27.9729L61.6212 30.2939V38.9452L65.8051 41.1895H66.0162L69.9122 39.0028V30.2556L67.1293 27.8386Z" fill="#232021"/>
<path d="M65.2495 26.5535C65.2495 25.978 65.5373 25.4985 65.902 25.4985C66.2475 25.4985 66.5353 25.9589 66.5353 26.5535C66.5353 27.129 66.2475 27.6085 65.902 27.6085C65.5373 27.5894 65.2495 27.129 65.2495 26.5535Z" fill="#D8DFE1"/>
<path d="M65.1522 38.5041C64.9987 38.811 64.7684 38.7343 64.5764 38.6959C62.5037 38.2739 62.5804 38.1588 62.5804 37.9861C62.5804 37.6409 62.5804 36.0871 62.5804 36.0871C62.8683 36.0871 64.8643 36.7201 65.2098 36.816C65.8431 37.027 65.3057 38.1972 65.1522 38.5041Z" fill="#D8DFE1"/>
<path d="M65.1522 35.6651C64.9987 35.972 64.7684 35.8953 64.5764 35.8569C62.5037 35.4349 62.5804 35.3198 62.5804 35.1472C62.5804 34.8019 62.5804 33.2481 62.5804 33.2481C62.8683 33.2481 64.8643 33.8812 65.2098 33.9771C65.8431 34.1689 65.3057 35.339 65.1522 35.6651Z" fill="#D8DFE1"/>
<path d="M65.1522 32.9602C64.9987 33.2671 64.7684 33.1904 64.5764 33.1521C62.5037 32.73 62.5804 32.6149 62.5804 32.4423C62.5804 32.0778 62.5804 30.5432 62.5804 30.5432C62.8683 30.5432 64.8643 31.1763 65.2098 31.2722C65.8431 31.464 65.3057 32.6341 65.1522 32.9602Z" fill="#D8DFE1"/>
<path d="M66.9005 38.6959C66.7086 38.7342 66.4782 38.8109 66.3247 38.504C66.152 38.1971 65.6146 37.027 66.2479 36.8352C66.5934 36.7201 68.6086 36.1062 68.8773 36.1062C68.8965 36.1062 68.8965 37.6408 68.8965 37.9861C68.8965 38.1779 68.9732 38.2738 66.9005 38.6959Z" fill="#D8DFE1"/>
<path d="M68.8965 35.1471C68.8965 35.3197 68.9732 35.4348 66.9005 35.8568C66.7086 35.8952 66.4782 35.9527 66.3247 35.665C66.152 35.3581 65.6146 34.188 66.2479 33.9961C66.5934 33.881 68.6086 33.2672 68.8965 33.2672C68.8965 33.248 68.8965 34.7826 68.8965 35.1471Z" fill="#D8DFE1"/>
<path d="M68.8965 32.4425C68.8965 32.6152 68.9732 32.7303 66.9005 33.1523C66.7086 33.1906 66.4782 33.2674 66.3247 32.9604C66.152 32.6535 65.6146 31.4834 66.2479 31.2916C66.5934 31.1765 68.6086 30.5626 68.8965 30.5626C68.8965 30.5435 68.8965 32.0781 68.8965 32.4425Z" fill="#D8DFE1"/>
<path d="M6.80847 73.0898C6.55897 73.109 6.09836 73.1858 5.86805 73.2433H0.916433C0.705318 73.2049 0.206317 73.109 0.0335866 73.0898L0.0143942 73.1282C-0.00479808 73.4927 -0.00479808 74.6244 0.0143942 75.0464L0.206317 74.9889C0.340664 74.7587 0.762895 73.9531 0.897241 73.6461L2.79728 73.742V76.9839C2.79728 79.5735 2.77809 79.8229 2.7589 80.2257L1.53059 80.5902L1.43463 80.8779C2.06797 80.8779 2.68213 80.8587 3.29628 80.8587C3.89124 80.8587 4.52459 80.8779 5.11955 80.8779L5.21551 80.5902L3.87205 80.2257C3.87205 79.8804 3.79528 79.5735 3.79528 76.6002V73.742L5.81047 73.6461C5.86805 73.838 6.17513 74.7395 6.29028 75.0273L6.4822 74.9314C6.59736 74.471 6.78928 73.4159 6.80847 73.0898Z" fill="#232021"/>
<path d="M14.7743 80.2067C14.7359 80.0724 14.6975 78.2117 14.6975 76.9073V73.8765L15.6187 73.5312L15.7147 73.2434C15.2733 73.2434 14.7359 73.2626 14.1985 73.2626C13.8722 73.2626 13.546 73.2434 13.2005 73.2434L13.1045 73.4736L13.6803 73.8765V76.4853H9.64992V73.8765L10.1489 73.512L10.2257 73.2434C9.91861 73.2434 9.57315 73.2626 9.13173 73.2626C8.7095 73.2626 8.22969 73.2434 7.80746 73.2434L7.71149 73.512L8.63273 73.8381V76.8305C8.63273 78.2309 8.57515 79.9381 8.55596 80.2258L7.6923 80.5711L7.57715 80.8589C8.03776 80.8589 8.59434 80.8397 9.09334 80.8397C9.47719 80.8397 9.80346 80.8589 10.0913 80.8589L10.1873 80.5903L9.64992 80.1683C9.61153 78.979 9.64992 78.0199 9.64992 77.0607H12.1833C12.7975 77.0607 13.4116 77.0416 13.6803 76.984C13.6803 78.0582 13.6995 79.0749 13.6611 80.2067L13.2005 80.5711L13.1237 80.8589C13.45 80.8589 13.8147 80.8397 14.1985 80.8397C14.7359 80.8397 15.2733 80.8589 15.7531 80.8589L15.849 80.5711L14.7743 80.2067Z" fill="#232021"/>
<path d="M22.0478 79.0365C21.7791 79.3434 21.2801 80.0724 21.0498 80.3985L18.5932 80.3026C18.5548 79.3434 18.5548 77.9239 18.5548 77.1567C18.8811 77.1567 20.666 77.2909 20.8387 77.2909C20.973 77.2909 21.4912 76.7155 21.5296 76.6195L21.4912 76.5236C20.7811 76.6004 19.6296 76.6579 18.5548 76.6579V73.7805L20.8963 73.6846C20.9922 73.934 21.2801 74.6438 21.3953 74.9315L21.5872 74.8356C21.664 74.4711 21.8559 73.4736 21.8751 73.1667L21.8559 73.1475C21.6448 73.1475 21.0114 73.2434 20.8963 73.2626H18.0174C17.5568 73.2626 17.077 73.2434 16.5972 73.2434L16.5204 73.512L17.5184 73.8381V76.9073C17.5184 78.8447 17.48 80.1299 17.4417 80.2642L16.4628 80.5903L16.3669 80.878C16.8467 80.878 17.4225 80.8589 17.9407 80.8589H19.7639C20.4357 80.8589 21.1074 80.8589 21.8559 80.8972C21.9902 80.5136 22.2397 79.401 22.2589 79.0365H22.0478Z" fill="#232021"/>
<path d="M32.7367 73.2623C32.372 73.2623 31.9882 73.2431 31.5659 73.2431L31.4508 73.5117L32.4296 73.9145C32.4296 74.6434 32.5063 78.8444 32.5063 79.3815H32.468C30.9326 77.6359 29.3012 75.756 27.7658 73.857C27.5355 73.5692 27.3628 73.2815 27.3244 73.2048L25.7507 73.2623L25.6355 73.5309C26.3456 73.7611 26.4416 73.7227 26.9022 74.4133C26.8446 77.7702 26.7295 79.6884 26.6911 80.1872L25.7507 80.6092L25.6739 80.8969C26.0961 80.8969 26.5759 80.8777 27.0173 80.8777C27.5163 80.8777 27.9386 80.8969 28.38 80.8969L28.4568 80.6092L27.4012 80.1872C27.3244 79.6884 27.3052 76.907 27.3244 74.9312H27.3436C29.7235 77.8853 31.7578 80.379 32.775 81.1079L32.9094 81.0504C32.9478 80.7626 32.967 80.2447 32.967 79.8802C32.9862 77.751 33.0821 74.4516 33.1013 73.9337L34.0801 73.5501L34.1569 73.2623C33.6771 73.2431 33.1589 73.2623 32.7367 73.2623Z" fill="#232021"/>
<path d="M41.01 79.938C39.8968 77.1757 38.7644 74.2983 38.5917 73.8188C38.4574 73.416 38.419 73.205 38.419 73.0323L38.3422 72.9748L37.4786 73.5311L37.5937 73.838C37.6321 73.9531 37.6129 74.0682 37.5553 74.2024C36.6149 76.6002 35.3674 79.516 35.0219 80.1873L34.2159 80.571L34.1391 80.8587C34.5421 80.8587 34.926 80.8395 35.329 80.8395C35.7704 80.8395 36.2886 80.8587 36.6917 80.8587L36.7684 80.5902L35.7513 80.2065C35.9432 79.6502 36.1159 79.209 36.5381 78.1157C38.1119 78.1348 38.6301 78.0965 39.1099 78.0581C39.5705 79.1707 39.8968 79.9763 39.9736 80.2833L39.5513 80.6094L39.4746 80.8587C39.916 80.8587 40.2998 80.8395 40.7029 80.8395C41.1635 80.8395 41.6433 80.8587 42.0655 80.8587L42.1423 80.5902C41.3938 80.3408 41.2211 80.2449 41.01 79.938ZM36.7684 77.521C37.0179 76.7729 37.325 76.0439 37.8624 74.6245H37.8816C38.1887 75.4877 38.5341 76.3892 38.9564 77.5785C38.4766 77.5785 37.0947 77.521 36.7684 77.521Z" fill="#232021"/>
<path d="M44.8286 80.245C44.8094 80.034 44.771 78.8063 44.771 76.888V73.8572L45.6155 73.5311L45.6922 73.2626C45.2316 73.2626 44.7326 73.2818 44.2528 73.2818C43.8114 73.2818 43.3508 73.2626 42.9094 73.2626L42.8326 73.5311L43.7538 73.8572V76.9072C43.7538 78.8255 43.7346 80.0723 43.677 80.2642L42.775 80.6094L42.6982 80.8972C43.1589 80.8972 43.6962 80.878 44.272 80.878C44.867 80.878 45.3852 80.8972 45.8266 80.8972L45.9034 80.6094L44.8286 80.245Z" fill="#232021"/>
<path d="M52.2551 79.6694C51.6025 78.8253 50.7389 77.5785 50.4894 77.1565V77.1373C51.3147 76.8687 52.2935 76.3508 52.2935 75.104C52.2935 73.8187 51.353 73.1665 49.4722 73.1665C48.551 73.1665 47.2843 73.2816 46.7469 73.3967L46.6509 73.6845L47.6297 73.8187V77.1757C47.6297 78.6911 47.5722 79.7845 47.553 80.2257L46.6893 80.5901L46.6125 80.8779C47.1115 80.8779 47.6105 80.8587 48.1095 80.8587C48.6661 80.8587 49.1843 80.8779 49.7409 80.8779L49.8177 80.5901L48.6853 80.2257C48.6661 79.6502 48.6661 78.7678 48.6661 77.1757V73.6269C50.0096 73.5885 51.1995 73.8379 51.1995 75.2958C51.1995 76.4467 50.3742 76.9263 49.2803 77.214L49.2419 77.2908C49.9904 78.4609 50.7965 79.5735 51.2955 80.1298C51.7753 80.6669 52.2743 80.993 53.1571 81.0505L53.2339 80.9546C53.0995 80.7436 52.9076 80.5326 52.2551 79.6694Z" fill="#232021"/>
<path d="M57.8785 73.0323C56.0936 73.0323 53.8481 74.3942 53.8481 77.1181C53.8481 79.8036 55.9784 81.0505 57.8977 81.0505C59.7977 81.0505 61.9664 79.8036 61.9089 76.9071C61.8897 74.2599 59.7209 73.0323 57.8785 73.0323ZM58.032 80.6477C56.1895 80.6477 55.0572 78.8253 55.0572 76.9455C55.0572 74.9697 56.0552 73.4543 57.7825 73.4543H57.8017C59.4906 73.4543 60.6997 75.1231 60.6997 77.0414C60.7189 78.787 60.0088 80.6477 58.032 80.6477Z" fill="#232021"/>
<path d="M66.5535 76.7728V76.6961C67.4172 76.5618 68.4536 76.0439 68.4536 74.9121C68.4536 73.6653 67.398 73.1665 65.6131 73.1665C64.8838 73.1665 63.502 73.2624 62.9646 73.32L62.8686 73.5885L63.8474 73.8187V77.5401C63.8474 79.1131 63.809 80.0722 63.7707 80.2448L62.9262 80.5709L62.8494 80.8587C63.5979 80.8779 64.308 80.897 65.0757 80.897C66.6495 80.897 68.9334 80.6285 68.9334 78.6527C68.9526 77.6169 68.2425 76.9455 66.5535 76.7728ZM64.8838 73.6077H65.2293C65.9394 73.6077 66.4 73.6845 66.7455 73.8763C67.1485 74.0873 67.3596 74.4518 67.3596 74.9889C67.3596 76.2741 66.1889 76.581 64.8838 76.6002V73.6077ZM67.7435 78.6335C67.7435 79.0363 67.6667 79.4584 67.3596 79.8036C66.995 80.2065 66.4192 80.4558 64.9222 80.4558C64.8454 79.5926 64.8838 78.2882 64.8838 77.3483V77.0414C67.3404 76.9647 67.7435 77.7703 67.7435 78.6335Z" fill="#232021"/>
<path d="M71.8897 80.245C71.8705 80.034 71.8321 78.8063 71.8321 76.888V73.8572L72.6766 73.5311L72.7534 73.2626C72.2736 73.2626 71.7938 73.2818 71.3139 73.2818C70.8533 73.2818 70.4119 73.2626 69.9705 73.2626L69.8937 73.5311L70.7958 73.8572V76.9072C70.7958 78.8255 70.7766 80.0723 70.719 80.2642L69.8169 80.6094L69.7402 80.8972C70.2008 80.8972 70.7382 80.878 71.3139 80.878C71.9089 80.878 72.4271 80.8972 72.8493 80.8972L72.9261 80.6094L71.8897 80.245Z" fill="#232021"/>
<path d="M83.5575 80.2067C83.5 80.0724 83.4808 78.2117 83.4808 76.9073V73.8765L84.402 73.5312L84.498 73.2434C84.0373 73.2434 83.4999 73.2626 82.9626 73.2626C82.6363 73.2626 82.2908 73.2434 81.9646 73.2434L81.8686 73.4736L82.4444 73.8765V76.4853H78.4332V73.8765L78.9322 73.512L79.0281 73.2434C78.7019 73.2434 78.3756 73.2626 77.915 73.2626C77.4928 73.2626 77.013 73.2434 76.5907 73.2434L76.4756 73.512L77.3968 73.8381V76.8305C77.3968 78.2309 77.3392 79.9381 77.32 80.2258L76.4564 80.5711L76.3604 80.8589C76.821 80.8589 77.3776 80.8397 77.8766 80.8397C78.2796 80.8397 78.5867 80.8589 78.8746 80.8589L78.9706 80.5903L78.4524 80.1683C78.414 78.979 78.4332 78.0199 78.4332 77.0607H80.9474C81.5615 77.0607 82.1757 77.0416 82.4444 76.984C82.4444 78.0582 82.4636 79.0749 82.4444 80.2067L81.9838 80.5711L81.907 80.8589C82.2333 80.8589 82.5787 80.8397 82.9818 80.8397C83.5191 80.8397 84.0565 80.8589 84.5363 80.8589L84.6323 80.5711L83.5575 80.2067Z" fill="#232021"/>
<path d="M89.5083 73.0323C87.7234 73.0323 85.4971 74.3942 85.4971 77.1181C85.4971 79.8036 87.6274 81.0505 89.5467 81.0505C91.4467 81.0505 93.6154 79.8036 93.5578 76.9071C93.5387 74.2599 91.3507 73.0323 89.5083 73.0323ZM89.681 80.6477C87.8385 80.6477 86.7062 78.8253 86.7062 76.9455C86.7062 74.9697 87.7042 73.4543 89.4315 73.4543H89.4507C91.1588 73.4543 92.3487 75.1231 92.3487 77.0414C92.3487 78.787 91.6386 80.6477 89.681 80.6477Z" fill="#232021"/>
<path d="M98.2013 76.9072C97.5487 76.5619 96.9346 76.2742 96.474 75.9865C96.0325 75.7179 95.8022 75.3918 95.8022 74.8547C95.8022 74.1641 96.3396 73.5311 97.2416 73.5311C97.7215 73.5311 98.1053 73.7037 98.2588 73.8188C98.3356 74.0298 98.5275 74.6629 98.6619 74.9506L98.8346 74.8547C99.0073 74.4327 99.2185 73.416 99.2377 73.1091L99.1417 73.0515C98.873 73.1475 98.5275 73.2817 98.374 73.416C98.1437 73.2434 97.7023 73.0515 97.1457 73.0515C95.6679 73.0515 94.8426 74.1066 94.8426 75.1424C94.8426 75.833 95.1497 76.466 95.9366 76.9456C96.4931 77.2909 97.0689 77.5594 97.6639 77.8855C98.2397 78.2116 98.5083 78.5953 98.5083 79.1132C98.5083 80.0531 97.8174 80.6094 96.781 80.6286C96.1669 80.6478 95.8022 80.4943 95.6487 80.4176C95.4184 79.2858 95.3416 78.9597 95.284 78.8063L95.0921 78.883C94.9961 79.0556 94.6315 80.0148 94.5739 80.3217C94.9002 80.6286 95.9174 81.089 96.8386 81.089C97.8174 81.089 99.5447 80.6286 99.5447 78.8063C99.5639 78.1541 99.3528 77.5019 98.2013 76.9072Z" fill="#232021"/>
<path d="M103.057 77.4635L103.172 77.7512C103.288 77.7896 103.422 77.8088 103.633 77.8088C104.535 77.8088 106.147 77.2717 106.147 75.4302C106.147 74.8163 105.898 74.0874 105.207 73.6654C104.65 73.3009 103.959 73.1858 103.019 73.1858C102.385 73.1858 101.445 73.2625 100.601 73.3585L100.505 73.627L101.445 73.8572V76.7921C101.445 79.4393 101.445 80.0147 101.407 80.2449L100.601 80.6094L100.524 80.878C100.984 80.878 101.464 80.8588 101.925 80.8588C102.52 80.8588 103.115 80.878 103.71 80.878L103.825 80.5902L102.558 80.2258C102.558 80.0339 102.481 79.4968 102.481 76.7537V73.627C103.921 73.5886 105.015 74.0298 105.015 75.5069C105.015 76.5811 104.401 77.3676 103.057 77.4635Z" fill="#232021"/>
<path d="M109.007 80.245C108.988 80.034 108.95 78.8063 108.95 76.888V73.8572L109.794 73.5311L109.871 73.2626C109.391 73.2626 108.911 73.2818 108.451 73.2818C107.99 73.2818 107.549 73.2626 107.088 73.2626L107.011 73.5311L107.913 73.8572V76.9072C107.913 78.8255 107.894 80.0723 107.836 80.2642L106.934 80.6094L106.858 80.8972C107.299 80.8972 107.856 80.878 108.431 80.878C109.026 80.878 109.545 80.8972 109.986 80.8972L110.063 80.6094L109.007 80.245Z" fill="#232021"/>
<path d="M117.779 73.0898C117.529 73.109 117.069 73.1857 116.819 73.2432H111.887C111.676 73.2049 111.177 73.109 111.004 73.0898L110.966 73.1281C110.946 73.4926 110.946 74.6244 110.966 75.0464L111.158 74.9888C111.292 74.7586 111.714 73.953 111.868 73.6461L113.768 73.742V76.9838C113.768 79.5734 113.749 79.8228 113.729 80.2256L112.501 80.5901L112.424 80.8778C113.058 80.8778 113.672 80.8587 114.286 80.8587C114.881 80.8587 115.495 80.8778 116.09 80.8778L116.205 80.5901L114.843 80.2256C114.843 79.8804 114.766 79.5734 114.766 76.6002V73.742L116.781 73.6461C116.839 73.8379 117.146 74.7395 117.242 75.0272L117.433 74.9313C117.549 74.4709 117.741 73.4159 117.76 73.0898H117.779Z" fill="#232021"/>
<path d="M124.438 79.938C123.325 77.1757 122.193 74.2983 122.02 73.8188C121.886 73.416 121.847 73.205 121.847 73.0323L121.77 72.9748L120.907 73.5311L121.022 73.838C121.06 73.9531 121.041 74.0682 120.984 74.2024C120.043 76.6002 118.796 79.516 118.45 80.1873L117.644 80.571L117.567 80.8587C117.97 80.8587 118.354 80.8395 118.757 80.8395C119.199 80.8395 119.717 80.8587 120.12 80.8587L120.197 80.5902L119.18 80.2065C119.371 79.6502 119.544 79.209 119.966 78.1157C121.54 78.1348 122.078 78.0965 122.538 78.0581C122.999 79.1707 123.306 79.9763 123.402 80.2833L122.98 80.6094L122.903 80.8587C123.344 80.8587 123.728 80.8395 124.131 80.8395C124.573 80.8395 125.072 80.8587 125.494 80.8587L125.571 80.5902C124.822 80.3408 124.649 80.2449 124.438 79.938ZM120.197 77.521C120.446 76.7729 120.753 76.0439 121.271 74.6245H121.291C121.598 75.4877 121.943 76.3892 122.385 77.5785C121.924 77.5785 120.523 77.521 120.197 77.521Z" fill="#232021"/>
<path d="M131.789 78.9406C131.52 79.2283 131.002 80.0148 130.714 80.456L128.238 80.3026C128.219 80.1107 128.2 78.7296 128.2 76.8881V73.8573L129.006 73.512L129.102 73.2434C128.661 73.2434 128.181 73.2626 127.682 73.2626C127.164 73.2626 126.703 73.2434 126.3 73.2434L126.204 73.512L127.164 73.8573V76.8881C127.164 78.6912 127.144 80.0915 127.125 80.245L126.166 80.5903L126.089 80.8588C126.588 80.8588 127.144 80.8397 127.701 80.8397C130.273 80.8397 131.213 80.878 131.616 80.878C131.731 80.5711 131.962 79.4202 132 78.9022L131.789 78.9406Z" fill="#232021"/>
</svg>
